<svg width="27" height="27" fill="none" xmlns="http://www.w3.org/2000/svg"><path d="M26.995 6.659a.844.844 0 00-.482-.673L13.857.079a.844.844 0 00-.714 0L.487 5.986A.844.844 0 000 6.75v14.344c0 .345.21.655.53.783l12.657 5.063a.842.842 0 00.626 0l12.657-5.063a.843.843 0 00.53-.783V6.75l-.005-.091zM13.5 1.775l10.533 4.916-4.056 1.622L9.246 3.76 13.5 1.775zM7.188 4.721l10.565 4.482-4.253 1.701L2.967 6.691l4.221-1.97zm-5.5 3.275l10.968 4.388V24.91L1.687 20.523V7.996zM14.344 24.91V12.384l10.969-4.388v12.527l-10.97 4.387z" fill="#0A143A"/></svg>