<svg width="28" height="28" fill="none" xmlns="http://www.w3.org/2000/svg"><path d="M15.75 24.73c.643-.375 1.667-.824 2.728-1.01.872-.15 2.426-.862 3.108-1.423 1.1-.861 1.364-1.123 1.933-1.722a11.827 11.827 0 001.516-2.022c.948-1.684.72-2.433.644-2.396-1.781.637-2.008.712-3.221 1.086-.645.187-1.175.374-1.933.561-.076 0-.152-.262-.341-.561-.266-.337-.455-.45-.455-.45s1.099-1.197 1.44-1.759c.53-.748 1.706-2.47 1.706-2.47s1.78-1.086 2.994-2.62c1.137-1.386 1.364-1.91 1.743-3.52.266-1.235 0-2.657-.644-3.63-.53-.824-.872-1.161-1.933-1.835-.682-.412-1.402-.674-1.402-.674-.341.562-1.175 1.984-1.706 2.62-.72.862-1.289 1.31-1.895 1.835-.417.374-1.402 1.123-2.16 1.647-.53.374-1.592 1.01-1.744 1.123a16.76 16.76 0 01-1.402.749s-.265 1.123-.455 1.722c-.379 1.198-.947 2.208-.947 2.208s-.266-1.647-.834-2.658c-.607-1.085-1.403-1.684-1.44-1.909-.417-2.32-1.024-2.695-1.554-3.294a6.724 6.724 0 00-2.388-1.722c-1.061-.45-2.502-.86-4.245-.487-1.213.262-2.577.787-2.577.787s.682.786 1.175 1.46c.833 1.197 1.478 2.17 1.78 2.994.342.861.759 2.022.948 2.733.19.749.342 1.834.342 1.834s1.099.487 1.591.936c.38.337.834.749 1.137 1.498 0 .037-.985.411-1.667.898-.91.636-1.289 1.048-1.44 1.722 0 0-1.1.898-1.024 1.872.038.411.341.823.493.973.227.262.758.599 1.364.45.645-.15 1.44-1.012 2.691-.562.569.187.872.935 1.137 1.422.266.487.531.786.645 1.198.151.487-.114.898-.38 1.198-.303.3-1.212.749-1.477 1.572-.228.637-.038 1.423.644 1.797.644.337 1.554.112 1.554.112s.796.861 1.895.674c.985-.187 2.084-1.16 2.312-1.422a6.915 6.915 0 011.743-1.535z" fill="#000"/><path d="M23.177 7.624c4.624-2.246 3.525-3.632 3.525-3.632-2.615 2.62-4.093 2.845-4.093 2.845 4.434-2.957 2.918-4.267 2.918-4.267-1.1 1.984-3.676 3.594-3.676 3.594 3.714-3.706 2.236-4.567 2.236-4.567-1.895 3.743-8.414 7.3-8.414 7.3-.91 5.128-4.7 7.411-4.7 7.411l.606-.898c-.113 0-1.402-.037-1.402-.037l.114-.337c-.569 0-2.426.337-2.426.337l.038-.375c-1.175.45-2.236 1.273-2.729 1.76-.493.486-.151.599-.151.599-.38.262-.872.786-.872.786-.417.636 0 .973.265 1.198.303.262.19-.038.19-.038-.341-.45.151-.711.151-.711.53-.15.758-.374.758-.374v.262a.659.659 0 00-.151.187 3.896 3.896 0 00-.341.411c-.038.038-.076.113-.114.15l.038.038c.038 0 .113-.038.151-.038a1.32 1.32 0 00.341-.15c.19-.112.417-.187.607-.336.606-.15 1.478-.113 1.478-.113 1.061 0 1.781 1.273 1.781 1.273.986 2.321 2.843 2.546 2.843 2.546-.038-.15-.341-.637-.341-.637 2.388 2.097-.834 3.332-.834 3.332-.455.711-.493 1.198-.493 1.198.152.599 1.175.412 1.175.412-.834-.3-.227-1.049-.227-1.049-.114 1.236 1.213.45 1.213.45-1.1.15-.417-.824-.417-.824-.114 1.048 1.137.112 1.137.112-1.175.113-.341-.636-.341-.636.34-.337 1.895-.786 1.895-.786-.38-.075-.72-.337-.72-.337.758-.112 1.933-.45 1.933-.45-.758-.261-1.062-.598-1.062-.598.682 0 1.478-.375 1.478-.375 1.82.824 2.578.113 2.578.113-.417 0-1.82-.637-1.82-.637 2.388 1.011 3.374-.037 3.374-.037-.872 0-2.578-.374-2.578-.374 2.767.486 3.866-.637 3.866-.637-1.554 0-3.41.038-3.41.038 4.13-.15 4.737-1.46 4.737-1.46-1.44.374-4.548.823-4.548.823 5.344-.936 5.723-2.695 5.723-2.695-3.184 1.535-7.277 2.209-7.277 2.209l-1.289-.225c-3.26.973-3.714-.374-3.714-.374 3.904 2.695 9.4-6.589 9.4-6.589-1.593.524-1.934.375-1.934.375 3.98-1.348 4.094-2.097 4.094-2.097-1.933.524-2.35.375-2.35.375 3.108-.524 3.676-1.797 3.676-1.797-2.16.748-3.07.599-3.07.599 4.359-.974 4.018-2.097 4.018-2.097-2.01.899-3.222.936-3.222.936 4.472-1.385 3.828-2.695 3.828-2.695-1.743 1.348-3.449 1.61-3.449 1.61zM5.781 17.806c-.038 0-.114.037-.152.037-.076 0-.19.038-.265.038-.114.037-.228.037-.341.075-.076 0-.114.037-.19.037 0 0-.038.037-.038 0v-.037l.114-.113.151-.15c.038-.037.114-.074.152-.112 0 0 .076-.037.076-.075 0 0 0 .15.417.225 0 .037.038.037.076.075 0-.038 0-.038 0 0 .038-.038.038-.038 0 0zm0-.45c-.19 0-.342-.187-.342-.187l.645-.374-.303.561zm2.653.038l-.228.187-.985-.262 1.213.075zm.871-.674l-.34.3-1.744-.262 2.084-.038zm.72-.86l-.416.336-2.237-.075 2.653-.262zm2.881 2.17c-1.478.188-1.97-.187-1.97-.187 2.918.038 5.192-.674 5.23-.674l-3.26.861zm3.26-.86c-1.403.523-2.464.785-3.26.86l3.26-.86zm1.63-1.985c-4.435 2.546-6.14 1.91-6.14 1.91 3.562-.637 6.101-1.91 6.14-1.91 0-.037 0-.037 0 0z" fill="#FFD100"/><path d="M9.913 24.805c-.114.936 1.023.112 1.023.112-.075.038-.417.038-.492-.037-.114-.075-.076-.112-.076-.225 0-.262.151-.449.379-.561.417-.262 1.099-.524 1.63-.487.151-.449 0-.599-.114-.86-.758-.038-1.213-.338-1.857-.974.227.337.19.749.075 1.085-.113.3-.303.712-.53.936-.228.262-.493.45-.796.6-.076.037-.38.112-.417.187-.379.636-.455 1.085-.455 1.085.152.524 1.061.375 1.061.375-.758-.3-.19-.936-.19-.936-.075 1.123 1.1.411 1.1.411-.985.15-.341-.71-.341-.71zM8.7 15.034s1.857-.336 2.652-.336c0 0-.416-.45-1.932-.75 0 0 .568-.261 1.44-.261 0 0-.38-.337-1.782-.674 0 0 .569-.225 1.213-.225 0 0-.644-.374-1.667-.561 0 0 .53-.187 1.175-.187 0 0-.758-.375-1.63-.487 0 0 .568-.187 1.099-.225 0 0-.948-.449-1.63-.411 0 0 .72-.188.91-.225 0 0-.986-.374-1.478-.374 0 0 .606-.15.758-.15 0 0-.645-.225-1.1-.3 0 0 2.426-1.048 4.966 5.279 0 0 2.122-3.482-1.365-6.85l-.379.523s.417-2.283-1.175-3.855c0 0 .455 1.946.228 2.358 0 0-.266-2.845-1.479-3.594 0 0 .493 1.573.342 2.172 0 0-.455-2.396-1.592-2.808 0 0 .682 1.535.492 2.209 0 0-.606-2.434-1.819-2.509 0 0 .834 1.76.72 2.172 0 0-.871-2.172-2.274-2.284 0 0 1.213 2.022 1.137 2.321 0 0-1.554-2.47-2.69-1.872 0 0 2.5 2.209 3.638 7.899.038.075 2.388 1.048 3.221 4.005zm9.7 2.883c0 .374.304.636.683.636a.66.66 0 00.644-.636.635.635 0 00-.644-.636c-.38 0-.683.262-.683.636zm1.213 0c0 .337-.227.562-.53.562-.304 0-.531-.225-.531-.562 0-.3.227-.561.53-.561.304 0 .531.262.531.561z" fill="#FFD100"/><path d="M18.816 18.291h.113v-.337h.114l.227.337h.114l-.227-.337c.113 0 .19-.075.19-.224 0-.15-.077-.225-.266-.225h-.303v.786h.038zm.113-.674h.152c.076 0 .152 0 .152.113 0 .112-.114.112-.19.112h-.114v-.225z" fill="#FFD100"/></svg>