<svg width="20" height="20" fill="none" xmlns="http://www.w3.org/2000/svg"><path d="M9.134 5.903l.622.687.618-.691.463-.519c1.161-1.3 2.16-1.662 3.056-1.516 1.192.195 2.03.93 2.431 1.991.41 1.083.379 2.567-.35 4.193-.557 1.245-1.824 2.742-3.184 3.948-.672.595-1.338 1.095-1.912 1.44a5.104 5.104 0 01-.744.38c-.217.084-.338.1-.38.1 0 0 0 0 0 0s-.026 0-.085-.016a1.807 1.807 0 01-.24-.085 5.444 5.444 0 01-.743-.4c-.579-.364-1.261-.885-1.949-1.496-1.398-1.242-2.692-2.739-3.206-3.873-.792-1.75-.854-3.238-.464-4.282.376-1.003 1.21-1.712 2.534-1.898.911-.127 1.917.25 3.067 1.521l.466.516z" stroke="#000" stroke-width="1.667"/></svg>