<svg width="25" height="14" fill="none" xmlns="http://www.w3.org/2000/svg"><path d="M0 14V0h25l-6.956 7L25 14H0z" fill="#0F0F0F"/><path d="M10.547 10.353c.201-.117.52-.257.852-.316.273-.046.759-.269.972-.444a4.45 4.45 0 00.604-.538 3.68 3.68 0 00.473-.632c.297-.526.226-.76.202-.749-.557.2-.628.223-1.007.34-.201.058-.367.117-.604.175-.024 0-.047-.082-.107-.175a.604.604 0 00-.142-.14s.344-.375.45-.55c.166-.234.533-.773.533-.773s.557-.339.936-.819c.355-.432.427-.596.545-1.1.083-.385 0-.83-.201-1.134-.166-.257-.273-.363-.605-.573-.213-.129-.438-.21-.438-.21-.106.175-.367.62-.533.818-.225.27-.402.41-.592.573a8.68 8.68 0 01-.675.515c-.166.117-.498.316-.545.351-.19.117-.438.234-.438.234s-.083.351-.142.538c-.119.375-.296.69-.296.69s-.083-.514-.26-.83c-.19-.34-.44-.527-.45-.597-.131-.725-.32-.842-.487-1.03a2.092 2.092 0 00-.746-.537c-.331-.14-.781-.27-1.326-.152a6.468 6.468 0 00-.806.245s.214.246.368.456c.26.375.461.679.556.936.107.27.237.632.296.854.06.234.107.574.107.574s.343.152.497.292c.119.105.26.234.356.468 0 .012-.308.129-.521.28-.285.2-.403.328-.45.539 0 0-.344.28-.32.585a.568.568 0 00.154.304.446.446 0 00.426.14c.201-.047.45-.316.84-.175.179.058.273.292.356.444.083.152.166.246.202.375.047.152-.036.28-.119.374-.095.094-.379.234-.462.491a.457.457 0 00.202.562c.201.105.485.035.485.035s.249.269.592.21c.308-.058.652-.362.723-.444.178-.222.39-.386.545-.48z" fill="#000"/><path d="M12.868 5.008c1.445-.702 1.102-1.135 1.102-1.135-.818.819-1.28.889-1.28.889 1.386-.924.912-1.334.912-1.334-.343.62-1.148 1.123-1.148 1.123 1.16-1.158.698-1.427.698-1.427-.592 1.17-2.629 2.281-2.629 2.281-.284 1.603-1.469 2.317-1.469 2.317l.19-.281-.438-.012.035-.105c-.178 0-.758.105-.758.105l.012-.117c-.367.14-.699.398-.853.55-.154.152-.047.187-.047.187a2.22 2.22 0 00-.273.246c-.13.199 0 .304.083.374.095.082.06-.011.06-.011-.107-.14.047-.223.047-.223.166-.047.237-.117.237-.117V8.4a.206.206 0 00-.048.059c-.035.035-.07.082-.106.128-.012.012-.024.035-.036.047l.012.012c.012 0 .036-.012.048-.012.035-.012.07-.023.106-.047.06-.035.13-.058.19-.105.19-.047.462-.035.462-.035.331 0 .556.398.556.398.308.725.889.795.889.795a1.42 1.42 0 00-.107-.199c.746.655-.26 1.041-.26 1.041-.143.223-.155.375-.155.375.048.187.368.129.368.129-.261-.094-.072-.328-.072-.328-.035.386.38.14.38.14-.344.047-.13-.257-.13-.257-.036.327.355.035.355.035-.368.035-.107-.199-.107-.199.107-.105.592-.245.592-.245a.628.628 0 01-.225-.106c.237-.035.604-.14.604-.14-.237-.082-.331-.187-.331-.187.213 0 .461-.117.461-.117.569.257.806.035.806.035-.13 0-.569-.2-.569-.2.746.317 1.054-.01 1.054-.01-.272 0-.805-.118-.805-.118.865.152 1.208-.199 1.208-.199-.486 0-1.066.012-1.066.012 1.291-.047 1.48-.456 1.48-.456-.45.117-1.42.257-1.42.257 1.67-.292 1.788-.842 1.788-.842-.995.48-2.274.69-2.274.69l-.403-.07c-1.019.304-1.16-.117-1.16-.117 1.22.842 2.937-2.059 2.937-2.059-.498.164-.604.117-.604.117 1.243-.421 1.279-.655 1.279-.655-.604.164-.734.117-.734.117.97-.164 1.148-.562 1.148-.562-.675.234-.959.188-.959.188 1.362-.305 1.255-.656 1.255-.656-.627.281-1.006.293-1.006.293 1.397-.433 1.196-.842 1.196-.842a2.6 2.6 0 01-1.078.503zM7.432 8.19c-.012 0-.036.011-.048.011-.023 0-.059.012-.083.012-.035.012-.07.012-.106.023-.024 0-.036.012-.06.012 0 0-.011.012-.011 0v-.012l.035-.035.048-.046c.012-.012.035-.024.047-.036 0 0 .024-.011.024-.023 0 0 0 .047.13.07 0 .012.012.012.024.024 0-.012 0-.012 0 0 .012-.012.012-.012 0 0zm0-.14c-.06 0-.107-.06-.107-.06l.201-.116-.094.175zm.829.01l-.071.06-.308-.082.379.023zm.272-.21l-.106.094-.545-.082.651-.012zm.225-.269l-.13.106-.699-.024.83-.082zm.9.679c-.462.058-.615-.059-.615-.059.911.012 1.622-.21 1.634-.21l-1.019.269zm1.019-.27c-.438.165-.77.246-1.019.27l1.019-.27zm.51-.62c-1.386.796-1.92.597-1.92.597 1.114-.199 1.907-.596 1.92-.596 0-.012 0-.012 0 0z" fill="#FFD100"/><path d="M8.723 10.377c-.035.292.32.035.32.035-.024.012-.13.012-.154-.012-.036-.023-.024-.035-.024-.07 0-.082.048-.14.119-.175.13-.082.343-.164.509-.152.047-.14 0-.188-.036-.27-.236-.011-.379-.105-.58-.304.071.106.06.234.024.34a.895.895 0 01-.166.292.772.772 0 01-.249.187c-.023.012-.118.035-.13.059-.118.199-.142.34-.142.34.047.163.332.116.332.116-.237-.094-.06-.292-.06-.292-.023.35.344.128.344.128-.308.047-.107-.222-.107-.222zm-.38-3.053s.58-.106.83-.106c0 0-.13-.14-.604-.234 0 0 .177-.082.45-.082 0 0-.119-.105-.557-.21 0 0 .178-.07.379-.07 0 0-.201-.117-.521-.176 0 0 .166-.058.367-.058 0 0-.237-.117-.51-.152 0 0 .178-.059.344-.07 0 0-.296-.141-.51-.13 0 0 .226-.058.285-.07 0 0-.308-.116-.462-.116 0 0 .19-.047.237-.047 0 0-.201-.07-.343-.094 0 0 .758-.327 1.551 1.65 0 0 .663-1.088-.426-2.141l-.119.164s.13-.714-.367-1.205c0 0 .142.608.071.737 0 0-.083-.89-.462-1.123 0 0 .154.491.107.678 0 0-.142-.749-.498-.877 0 0 .214.48.154.69 0 0-.19-.76-.568-.784 0 0 .26.55.225.679 0 0-.272-.679-.71-.714 0 0 .378.632.355.725 0 0-.486-.772-.841-.584 0 0 .781.69 1.137 2.468.012.023.746.327 1.006 1.252zm3.033.9c0 .117.094.2.213.2a.206.206 0 00.201-.2.198.198 0 00-.201-.199c-.119 0-.213.082-.213.2zm.379 0c0 .106-.072.176-.166.176-.095 0-.166-.07-.166-.176 0-.093.07-.175.166-.175.094 0 .165.082.165.175z" fill="#FFD100"/><path d="M11.505 8.341h.035v-.105h.036l.071.105h.036l-.071-.105c.035 0 .059-.023.059-.07 0-.047-.024-.07-.083-.07h-.095v.245h.012zm.035-.21h.048c.024 0 .047 0 .047.035s-.035.035-.059.035h-.036v-.07z" fill="#FFD100"/></svg>