<svg width="335" height="16" fill="none" xmlns="http://www.w3.org/2000/svg"><path d="M14.454 5.327c-.03-.69-.141-1.164-.301-1.574a3.166 3.166 0 00-.75-1.151 3.194 3.194 0 00-1.149-.748c-.413-.16-.885-.271-1.574-.302-.695-.033-.915-.04-2.677-.04s-1.983.007-2.675.038c-.69.03-1.163.142-1.574.301a3.166 3.166 0 00-1.15.75c-.33.325-.586.718-.749 1.15-.16.412-.27.884-.301 1.573-.033.695-.04.916-.04 2.677 0 1.762.007 1.983.037 2.675.03.69.142 1.163.302 1.574a3.2 3.2 0 00.75 1.151c.325.33.718.586 1.149.748.413.16.884.271 1.574.301.692.03.913.039 2.674.039 1.762 0 1.983-.008 2.675-.039.69-.03 1.163-.141 1.574-.301a3.32 3.32 0 001.899-1.899c.16-.413.271-.885.301-1.574.03-.692.039-.913.039-2.675 0-1.761-.003-1.982-.034-2.674zm-1.168 5.298c-.028.634-.134.976-.223 1.204a2.152 2.152 0 01-1.232 1.232c-.228.09-.573.196-1.204.223-.685.03-.89.038-2.622.038-1.731 0-1.939-.007-2.62-.038-.635-.027-.977-.134-1.205-.223a1.996 1.996 0 01-.745-.484 2.017 2.017 0 01-.484-.745c-.09-.228-.196-.573-.223-1.204-.031-.685-.039-.89-.039-2.622 0-1.731.008-1.939.039-2.62.027-.635.134-.977.223-1.205.103-.281.268-.537.486-.745.21-.216.464-.38.746-.484.228-.09.573-.196 1.204-.223.684-.03.89-.038 2.62-.038 1.735 0 1.94.007 2.622.038.634.027.976.134 1.204.223.282.104.538.268.746.484.215.21.38.464.484.745.088.228.195.573.223 1.204.03.685.038.89.038 2.621 0 1.732-.008 1.935-.038 2.62z" fill="#fff"/><path d="M8.046 4.712a3.334 3.334 0 10.002 6.669 3.334 3.334 0 00-.002-6.67zm0 5.496a2.163 2.163 0 11.001-4.326 2.163 2.163 0 010 4.326zM11.87 3.89a.778.778 0 11-1.557 0 .778.778 0 011.557 0zm35.685 7.546a1.084 1.084 0 00-.053-.1c-.268-.484-.78-1.077-1.537-1.78l-.016-.016-.008-.008-.009-.008h-.008a9.26 9.26 0 01-.652-.66c-.166-.215-.204-.432-.112-.652.064-.167.306-.518.724-1.055.22-.284.395-.512.523-.684.929-1.234 1.331-2.023 1.208-2.367l-.048-.08c-.032-.048-.116-.093-.25-.133a1.267 1.267 0 00-.515-.02l-2.318.016a.3.3 0 00-.161.004l-.105.024-.04.02-.032.025a.358.358 0 00-.09.084.55.55 0 00-.08.141c-.252.65-.539 1.253-.86 1.811-.2.333-.382.622-.548.866a4.163 4.163 0 01-.419.54 2.923 2.923 0 01-.306.277c-.091.07-.16.1-.21.088a5.98 5.98 0 01-.136-.032.535.535 0 01-.181-.197.884.884 0 01-.093-.314 3.464 3.464 0 01-.024-.713c.006-.166.008-.279.008-.338 0-.204.004-.425.012-.664l.02-.567c.006-.14.008-.288.008-.443 0-.156-.01-.278-.028-.366a1.254 1.254 0 00-.084-.258.433.433 0 00-.165-.193.93.93 0 00-.27-.109 5.357 5.357 0 00-1.087-.105c-.998-.01-1.64.054-1.924.194-.112.059-.214.14-.306.241-.096.118-.11.183-.04.193.322.049.55.164.684.346l.049.097c.037.07.075.193.112.37.038.177.062.373.073.588.027.392.027.727 0 1.006-.027.28-.052.497-.077.652a1.304 1.304 0 01-.205.556.14.14 0 01-.04.04.604.604 0 01-.218.04c-.075 0-.166-.037-.273-.112a1.93 1.93 0 01-.334-.31 4.147 4.147 0 01-.39-.552 9.624 9.624 0 01-.452-.837l-.128-.234c-.08-.15-.19-.369-.33-.656-.14-.287-.263-.565-.37-.833a.53.53 0 00-.194-.257l-.04-.025a.855.855 0 00-.314-.12l-2.206.016c-.225 0-.378.05-.459.153l-.032.048a.26.26 0 00-.024.129c0 .059.016.131.048.217a26.58 26.58 0 001.05 2.19c.379.703.708 1.27.987 1.698.279.43.563.835.853 1.216.29.38.482.625.576.732.094.108.167.188.221.242l.201.193c.13.129.318.283.568.463.25.18.526.357.83.531.302.175.655.317 1.058.427.402.11.794.154 1.175.133h.926c.188-.016.33-.075.427-.177l.032-.04a.532.532 0 00.06-.15.816.816 0 00.028-.22 2.65 2.65 0 01.052-.624c.04-.186.086-.325.137-.42a1.028 1.028 0 01.31-.353.522.522 0 01.065-.028c.128-.043.28-.002.455.124.174.127.338.282.49.467.154.186.338.393.552.624.215.231.403.403.564.515l.16.097c.108.064.248.124.42.177a.902.902 0 00.45.04l2.06-.032c.205 0 .363-.033.476-.1.113-.067.18-.141.201-.222a.624.624 0 00.004-.274 1.015 1.015 0 00-.056-.213zm25.531 3.576V8.615h2.146l.322-2.493h-2.468V4.53c0-.722.2-1.214 1.236-1.214h1.32v-2.23a17.887 17.887 0 00-1.924-.098c-1.903 0-3.206 1.162-3.206 3.295v1.839h-2.153v2.493h2.153v6.397h2.574z" fill="#fff"/><g clip-path="url(#clip0_10575_1712)" fill="#fff"><path d="M301.473 15.772h-33.089c-.389 0-.389 0-.389-.39v-4.489c0-.311 0-.311.312-.311h66.274c.445 0 .412-.032.412.413v4.427c0 .35 0 .351-.351.351l-33.169-.001zm25.318-4.74c-.2 0-.399-.007-.598 0-.06 0-.156.031-.172.072-.063.157-.109.32-.14.486-.069.38-.118.764-.187 1.144-.07.38-.156.77-.234 1.156-.085.424-.164.849-.258 1.27-.03.135.019.184.137.188.199.006.398-.005.597.006.198.01.279-.11.303-.284.008-.061 0-.123.004-.185.019-.359.102-.439.453-.439h.268c.325 0 .336.012.35.33.022.529.071.575.586.575h.123c.322 0 .383-.105.304-.415-.095-.366-.156-.74-.226-1.114-.07-.374-.12-.75-.189-1.125-.083-.454-.185-.903-.266-1.357-.04-.23-.113-.312-.344-.312l-.511.003zm3.537 0v.024c-.301 0-.618-.06-.9.012-.719.184-.794.887-.667 1.51a.811.811 0 00.603.642c.191.045.385.071.581.078.302.02.615.282.632.545.028.423-.123.646-.518.7a6.836 6.836 0 01-.778.03c-.636.012-.545-.1-.558.58 0 .155.069.203.213.2.275-.005.552-.016.825 0 .346.027.662-.077.981-.181.318-.105.497-.321.623-.613.139-.325.107-.667.066-.993a1.05 1.05 0 00-.52-.793c-.296-.18-.596-.174-.91-.18-.243-.005-.473-.209-.483-.424-.01-.214.234-.439.485-.443.268-.004.536 0 .804 0 .522-.006.474.09.475-.513 0-.13-.058-.186-.187-.184-.257.006-.512.004-.767.004v-.002zm-7.544 2.148v1.893c0 .264.021.285.279.286h1.257c.564-.004.523.093.518-.56 0-.155-.078-.222-.233-.22-.2.005-.399-.005-.598 0-.176.009-.251-.055-.244-.237.009-.26.012-.522 0-.778-.01-.199.065-.264.262-.26.481.005.444.063.445-.46v-.062c.004-.12-.054-.177-.175-.175-.12.002-.233 0-.35 0-.117 0-.178-.054-.177-.174 0-.155.006-.316 0-.473-.011-.174.071-.234.233-.223.13.007.261 0 .389 0 .454 0 .447 0 .45-.447 0-.182-.054-.259-.248-.255-.522.01-1.045.01-1.566 0-.193-.004-.251.071-.249.254.01.624.007 1.256.007 1.891zm10.199-2.145h-.865c-.509.006-.468-.088-.468.523 0 .119.053.177.174.175h.389c.3 0 .302 0 .302.295v2.735c0 .6 0 .6.599.595.29 0 .305-.015.305-.3v-3.064c0-.196.066-.282.263-.261.048.003.096.003.144 0 .509-.007.46.069.467-.483 0-.156-.059-.221-.218-.218-.366.004-.73 0-1.094 0l.002.003zm-36.365-5.829a.276.276 0 00.012-.098c-.156-.56-.006-1.136-.091-1.694-.147-.984-.029-1.969-.07-2.952-.012-.297 0-.3.295-.301.591 0 1.182.004 1.772 0 .179 0 .242.06.241.239a4375.87 4375.87 0 000 8.875c0 .196-.078.247-.258.245a43.145 43.145 0 00-1.587 0 .353.353 0 01-.379-.234 73.334 73.334 0 00-.929-1.896c-.342-.67-.701-1.329-1.05-1.994-.088-.166-.162-.34-.243-.511l-.077.008c0 .133-.01.266 0 .398.017.202.056.403.068.605.012.203-.027.417.008.617.15.856.107 1.723.113 2.586 0 .415 0 .415-.41.415-.55 0-1.1-.005-1.649 0-.188 0-.252-.063-.251-.25.004-2.95.004-5.901 0-8.852 0-.183.054-.258.247-.254.488.01.976.007 1.463 0a.264.264 0 01.273.165c.404.821.817 1.635 1.224 2.456.258.52.507 1.043.768 1.562.149.296.312.585.467.877l.043-.012zM282.677 9.51h-.28c-.756 0-1.512-.013-2.268.008a.511.511 0 01-.508-.285c-.25-.42-.502-.84-.756-1.258-.015-.023-.039-.04-.049-.066-.131-.37-.4-.467-.771-.424-.166.02-.229.068-.227.233.006.508 0 1.013 0 1.524 0 .255-.012.266-.269.267-.591 0-1.182-.005-1.773 0-.19 0-.269-.05-.269-.254.005-2.95.005-5.9 0-8.85 0-.187.061-.253.25-.252.9.007 1.801-.015 2.7.011.49.01.977.071 1.455.18.399.089.781.247 1.126.467.344.24.628.557.827.926.301.537.37 1.113.368 1.713 0 .253-.008.507 0 .761.019.443-.043.886-.183 1.306-.105.28-.255.541-.446.771-.173.22-.411.39-.613.589a.164.164 0 00-.037.15c.112.192.234.38.361.564.186.274.376.547.569.816.182.254.373.502.559.754.074.102.141.204.234.35zm-4.857-5.69v1.73a.069.069 0 010 .02c-.02.18.063.259.239.234.189-.024.376-.053.563-.078.696-.108 1.21-.525 1.283-1.182.06-.545.112-1.11-.077-1.646a1.341 1.341 0 00-.35-.566 1.54 1.54 0 00-1.109-.397c-.109.006-.233.021-.325-.02-.227-.104-.227.026-.227.182.003.573.004 1.147.003 1.722zm-4.535.328c.299.277.623.531.887.837.16.183.233.444.342.67.24.49.162 1.02.099 1.511-.078.595-.312 1.181-.793 1.592-.397.35-.881.585-1.401.68-.779.14-1.558.046-2.336.07-.584.02-1.168 0-1.753.008-.188 0-.253-.062-.252-.25.004-2.952.004-5.903 0-8.855 0-.186.06-.252.25-.251.99.007 1.981-.028 2.969.014.747.031 1.48.19 2.025.775.304.31.479.723.492 1.157.005.215-.007.432 0 .646a1.558 1.558 0 01-.481 1.218.291.291 0 00-.055.086c-.019.042-.033.086-.049.13l.056-.038zm-2.978 2.398v1.068c0 .145.051.224.203.21.284-.023.576-.015.849-.083.692-.172 1.075-.592.98-1.357-.037-.305-.099-.597-.368-.761a3.021 3.021 0 00-.8-.34c-.205-.053-.436-.006-.655-.012-.149-.004-.211.056-.21.206.004.354.001.71.001 1.066v.003zm0-3.815c0 .22.006.439 0 .658-.006.165.055.25.225.228.294-.036.594-.052.857-.214.351-.215.594-.554.361-1.023-.045-.09-.083-.211-.156-.25-.329-.165-.673-.29-1.053-.284-.166 0-.239.056-.234.228.006.217-.001.44-.001.655l.001.002zm29.333 2.101V.448c0-.282.005-.286.289-.287.894 0 1.791-.02 2.68.008.51.012 1.018.07 1.517.177a2.745 2.745 0 011.626 1.033c.174.229.288.507.407.773.212.478.208.99.205 1.5-.004.988.016 1.977-.007 2.964-.015.63-.254 1.188-.609 1.718-.253.377-.622.583-.972.814-.248.166-.583.229-.889.272-1.331.186-2.671.051-4.006.093-.195.006-.245-.078-.244-.255a816.3 816.3 0 00.003-4.426zm2.309-.007c0 .911.004 1.824 0 2.736 0 .19.055.29.257.263.181-.025.361-.061.545-.078.336-.033.651-.18.891-.418a1.416 1.416 0 00.413-1.017 87.51 87.51 0 000-2.51c0-.243-.058-.484-.071-.727-.026-.486-.389-.72-.736-.935a1.382 1.382 0 00-.885-.207.522.522 0 01-.163-.01c-.246-.052-.247-.054-.247.21-.003.896-.004 1.794-.004 2.693zM287.37.16h1.587c.342 0 .389.047.449.389.074.404.163.805.24 1.208.065.34.116.682.183 1.022.07.359.156.715.228 1.073.105.502.201 1.006.312 1.506.037.17.109.333.162.5a269551.576 269551.576 0 01.267 1.374c.057.287.114.572.177.857.078.36.156.724.256 1.082.072.265.032.342-.24.342h-1.977c-.239 0-.311-.09-.349-.331a29.133 29.133 0 00-.252-1.462.223.223 0 00-.156-.135c-.604-.01-1.209-.01-1.814 0a.218.218 0 00-.155.14c-.091.445-.167.893-.247 1.34a.327.327 0 00-.007.082c.022.425-.055.364-.401.365h-1.918c-.155 0-.251 0-.186-.228.099-.351.123-.722.195-1.082.039-.197.11-.39.166-.58.012-.039.024-.078.032-.117.077-.41.159-.819.233-1.228.063-.34.111-.684.185-1.022.075-.337.179-.661.261-.994.043-.171.068-.346.102-.52.078-.388.161-.782.234-1.175.039-.206.061-.416.103-.623.029-.144.088-.282.119-.426.088-.41.162-.825.26-1.233.014-.056.141-.118.216-.119.58-.01 1.157-.005 1.735-.005zm-.722 5.721c.202.015.406.042.608.042.265 0 .529-.027.793-.042-.03-.283-.055-.567-.091-.849-.026-.202-.064-.401-.102-.6-.042-.22-.095-.436-.137-.655-.052-.276-.097-.554-.145-.832l-.145-.84c-.007-.04-.02-.077-.03-.119h-.057c-.025.123-.052.246-.074.369-.047.252-.088.506-.139.757-.045.223-.107.443-.147.667-.04.224-.059.457-.093.685-.032.207-.07.414-.106.623l-.135.794zm34.814-.978c0 .295.01.59 0 .885-.021.497-.022.998-.094 1.489a2.687 2.687 0 01-.67 1.401c-.402.457-.908.72-1.469.895a4.014 4.014 0 01-1.78.122c-.512-.078-1.037-.219-1.466-.532a3.099 3.099 0 01-.953-1.106c-.207-.407-.256-.828-.304-1.275-.11-1.019-.065-2.037-.059-3.056a7.786 7.786 0 01.177-1.596c.067-.305.28-.58.439-.862.311-.56.864-.818 1.421-1.049.203-.084.434-.105.655-.136.276-.038.556-.093.832-.078.486.027.971.09 1.431.286.378.162.736.365 1.012.663.461.504.742 1.09.755 1.802.012.713.078 1.431.116 2.147h-.043zm-2.311-1.447a.67.67 0 01-.078-.18c-.035-.249-.039-.503-.093-.746-.068-.312-.168-.623-.52-.729a1.378 1.378 0 00-.603-.047c-.345.052-.517.281-.631.545-.241.56-.226 1.175-.248 1.765-.032.843.039 1.69.068 2.535.011.337.064.666.243.958.179.292.428.505.818.473.343-.029.565-.228.725-.495.19-.316.242-.674.241-1.042a.746.746 0 01.078-.234c.019-.078.033-.158.039-.238.003-.791.003-1.582 0-2.372a.97.97 0 00-.039-.193zm9.945 1.48c0 .59-.019 1.181.006 1.77.019.444-.112.84-.249 1.247-.129.383-.381.68-.648.95-.342.348-.785.55-1.259.69-.42.124-.844.233-1.279.196-.484-.037-.974-.086-1.422-.311-.144-.071-.292-.137-.438-.205-.628-.298-.962-.852-1.235-1.448a1.89 1.89 0 01-.115-.536c-.167-1.323-.082-2.654-.071-3.98.005-.533.042-1.09.301-1.59.223-.433.561-.766.934-1.072a2.05 2.05 0 01.912-.43c.25-.059.504-.105.759-.136a6.21 6.21 0 01.722-.005 3.25 3.25 0 011.759.508c.593.381.997.888 1.183 1.56.081.297.164.592.15.915-.029.628-.01 1.253-.01 1.877zm-4.411 1.486c.053.263.115.525.155.789.087.535.342.808.883.846.209.015.43-.021.602-.229.316-.38.481-.864.462-1.359-.008-.837.007-1.674-.006-2.51 0-.422-.029-.844-.089-1.262-.066-.415-.246-.77-.714-.905-.395-.114-.959.138-1.048.503-.078.327-.259.631-.224.985 0 .018-.015.037-.025.055a1.617 1.617 0 00-.039.24c-.003.869-.003 1.738 0 2.608.008.08.022.16.043.239zm-17.533-1.609V.453c0-.282.005-.287.29-.288.866 0 1.733-.02 2.598.008.51.008 1.018.068 1.516.181.447.111.929.21 1.286.538.237.235.456.487.654.754.082.1.146.214.187.336.083.236.145.479.186.725.031.215 0 .439.009.658 0 .094.037.185.049.279.017.1.024.202.021.303-.018.251-.072.5-.068.75.014.745-.318 1.33-.798 1.868-.311.342-.716.488-1.122.654a2.978 2.978 0 01-1.031.2c-.395.016-.788.06-1.182.079-.156.007-.206.065-.204.212 0 .521-.005 1.043 0 1.564.004.191-.068.251-.253.249-.623-.008-1.251 0-1.876 0-.253 0-.265-.014-.265-.272l.003-4.438zm2.404-2.932c-.004.098-.011.172-.011.245v3.439c0 .175.056.264.233.239.131-.033.264-.057.399-.072.51-.005.874-.272 1.185-.636a.794.794 0 00.18-.294c.06-.216.094-.438.101-.662 0-.326-.051-.65-.078-.975-.04-.525-.491-1.053-1.007-1.147-.322-.059-.653-.09-1.002-.137zm20.492 2.933V.449c0-.282.004-.287.289-.288h1.753c.254 0 .265.011.265.27v7.085c0 .344 0 .344.337.345.68 0 1.361.005 2.041 0 .192 0 .273.054.267.257-.012.384-.011.768 0 1.152.005.192-.069.25-.254.249-1.479-.006-2.958 0-4.438 0-.253 0-.265-.013-.265-.271.003-1.48.004-2.957.005-4.434z"/><path d="M286.649 5.882h1.401c-.264.015-.528.04-.793.041-.202 0-.406-.026-.608-.041zm32.503.373V3.452c.019.062.032.126.039.19v2.372c-.007.081-.02.162-.039.24zm5.529-2.921v3.087a1.604 1.604 0 01-.039-.24c-.003-.868-.003-1.738 0-2.607.007-.081.02-.161.039-.24zm2.185 8.537c.058.401.116.803.177 1.204.022.14.06.279.078.419.014.119-.053.177-.172.174-.144 0-.307.036-.429-.018-.197-.087-.01-.251 0-.373.017-.288.103-.572.156-.856.02-.107.017-.217.037-.324.021-.083.047-.164.078-.243l.075.017z"/></g><defs><clipPath id="clip0_10575_1712"><path fill="#fff" transform="translate(268)" d="M0 0h67v16H0z"/></clipPath></defs></svg>