<svg width="16" height="12" fill="none" xmlns="http://www.w3.org/2000/svg"><path fill-rule="evenodd" clip-rule="evenodd" d="M1 1V.5H.5V1H1zm0 0H.5v1.512l-.001.695-.003 2.158-.004 3.63v.5h1.313C2.038 10.58 3 11.5 4.182 11.5a2.4 2.4 0 002.356-1.875h2.924a2.4 2.4 0 002.356 1.875 2.4 2.4 0 002.356-1.875H15.5V6.419c0-.38-.126-.748-.356-1.052v-.002L13.68 3.447l-.007-.008-.006-.008-.208-.25-.15-.181h-1.627V.5H1V1zm.5 1.25H1h.5V1.5h9.182V4h2.158l.05.061 1.457 1.91c.101.134.153.29.153.448v2.206h-1.273v.5c0 .753-.62 1.375-1.409 1.375-.788 0-1.409-.622-1.409-1.375v-.5H5.591v.5c0 .753-.62 1.375-1.41 1.375-.752 0-1.43-.716-1.43-1.506v-.5H1.494l.003-3.13.003-2.156V2.25zm2.046 6.875c0 .344.286.625.636.625.35 0 .636-.281.636-.625a.633.633 0 00-.636-.625.633.633 0 00-.636.625zm8.928-4.41L13.5 6h-2.78l-.001-1.285h1.755zm-1.292 4.41c0 .344.286.625.636.625.35 0 .636-.281.636-.625a.633.633 0 00-.636-.625.633.633 0 00-.636.625z" fill="#616365"/></svg>