<svg width="20" height="20" fill="none" xmlns="http://www.w3.org/2000/svg"><path fill-rule="evenodd" clip-rule="evenodd" d="M3 5v-.5h-.5V5H3zm0 0h-.5v1.512l-.001.695-.003 2.158-.004 3.63v.5h1.313C4.038 14.58 5 15.5 6.182 15.5a2.4 2.4 0 002.356-1.875h2.924a2.4 2.4 0 002.356 1.875 2.4 2.4 0 002.356-1.875H17.5v-3.206c0-.38-.126-.748-.356-1.052v-.002L15.68 7.448l-.007-.008-.006-.008-.208-.25-.15-.181h-1.627V4.5H3V5zm.5 1.25H3h.5V5.5h9.182V8h2.158l.05.061 1.457 1.91c.101.134.153.29.153.448v2.206h-1.273v.5c0 .753-.62 1.375-1.409 1.375-.788 0-1.409-.622-1.409-1.375v-.5H7.591v.5c0 .753-.62 1.375-1.41 1.375-.752 0-1.43-.716-1.43-1.506v-.5H3.494l.003-3.13.003-2.156V6.25zm2.046 6.875c0 .344.286.625.636.625.35 0 .636-.281.636-.625a.633.633 0 00-.636-.625.633.633 0 00-.636.625zm8.928-4.41L15.5 10h-2.78l-.001-1.285h1.755zm-1.292 4.41c0 .344.286.625.636.625.35 0 .636-.281.636-.625a.633.633 0 00-.636-.625.633.633 0 00-.636.625z" fill="#616365"/></svg>