<svg width="67" height="16" fill="none" xmlns="http://www.w3.org/2000/svg"><g clip-path="url(#clip0_10645_1725)" fill="#fff"><path d="M33.473 15.772H.384c-.389 0-.389 0-.389-.39v-4.489c0-.311 0-.311.312-.311H66.58c.445 0 .412-.032.412.413v4.427c0 .35 0 .351-.351.351l-33.17-.001zm25.318-4.74c-.2 0-.399-.007-.598 0-.06 0-.156.031-.172.072a2.5 2.5 0 00-.14.486c-.069.38-.118.764-.187 1.144-.07.38-.156.77-.234 1.156-.085.424-.164.849-.258 1.27-.03.135.02.184.137.188.199.006.398-.005.597.006.198.01.28-.11.303-.284.008-.061 0-.123.004-.185.02-.359.102-.439.453-.439h.268c.325 0 .336.012.35.33.023.529.07.575.586.575h.123c.322 0 .383-.105.304-.415-.095-.366-.156-.74-.226-1.114-.07-.374-.12-.75-.19-1.125-.083-.454-.184-.903-.265-1.357-.04-.23-.113-.312-.344-.312l-.511.003zm3.538 0v.024c-.302 0-.619-.06-.901.012-.719.184-.794.887-.667 1.51a.808.808 0 00.603.642c.19.045.385.071.581.078.302.02.615.282.632.545.028.423-.123.646-.518.7a6.837 6.837 0 01-.778.03c-.636.012-.545-.1-.558.58 0 .155.07.203.213.2.275-.005.552-.016.825 0 .346.027.662-.077.98-.181.32-.105.498-.321.624-.613.14-.325.107-.667.066-.993a1.05 1.05 0 00-.52-.793c-.296-.18-.596-.174-.91-.18-.243-.005-.473-.209-.483-.424-.01-.214.234-.439.485-.443.268-.004.536 0 .804 0 .522-.006.474.09.475-.513 0-.13-.058-.186-.187-.184-.257.006-.512.004-.767.004v-.002zm-7.546 2.148v1.893c0 .264.021.285.28.286h1.257c.564-.004.523.093.518-.56 0-.155-.078-.222-.233-.22-.2.005-.4-.005-.598 0-.176.009-.251-.055-.244-.237a9.58 9.58 0 000-.778c-.01-.199.065-.264.262-.26.48.005.444.063.445-.46v-.062c.004-.12-.054-.177-.175-.175-.12.002-.233 0-.35 0-.117 0-.178-.054-.177-.174 0-.155.006-.316 0-.473-.01-.174.071-.234.233-.223.13.007.261 0 .39 0 .453 0 .446 0 .449-.447 0-.182-.054-.259-.248-.255-.522.01-1.045.01-1.566 0-.193-.004-.251.071-.249.254.01.624.006 1.256.006 1.891zm10.2-2.145h-.865c-.509.006-.468-.088-.468.523 0 .119.053.177.174.175h.39c.3 0 .301 0 .301.295v2.735c0 .6 0 .6.6.595.289 0 .304-.015.304-.3v-3.064c0-.196.066-.282.263-.261.048.003.096.003.144 0 .509-.007.46.069.467-.483 0-.156-.06-.221-.218-.218-.366.004-.73 0-1.094 0l.002.003zM28.618 5.206a.26.26 0 00.012-.098c-.156-.56-.006-1.136-.09-1.694-.148-.984-.03-1.969-.07-2.952-.013-.297 0-.3.294-.301.59 0 1.181.004 1.772 0 .18 0 .242.06.241.239a4375.87 4375.87 0 000 8.875c0 .196-.078.247-.258.245a43.172 43.172 0 00-1.587 0 .355.355 0 01-.378-.234c-.303-.636-.61-1.27-.93-1.896-.342-.67-.7-1.329-1.05-1.994-.088-.166-.162-.34-.243-.511l-.077.008c0 .133-.01.266 0 .398.017.202.056.403.068.605.012.203-.027.417.008.617.15.856.107 1.723.113 2.586 0 .415 0 .415-.41.415-.55 0-1.1-.005-1.65 0-.187 0-.251-.063-.25-.25.004-2.95.004-5.901 0-8.852 0-.183.054-.258.247-.254.488.01.976.007 1.463 0a.262.262 0 01.273.165c.404.821.817 1.635 1.224 2.456.258.52.507 1.043.768 1.562.149.296.311.585.467.877l.043-.012zM14.677 9.51h-.28c-.756 0-1.512-.013-2.268.008a.51.51 0 01-.508-.285c-.25-.42-.503-.84-.756-1.258-.015-.023-.04-.04-.049-.066-.131-.37-.4-.467-.771-.424-.166.02-.23.068-.227.233.006.508 0 1.013 0 1.524 0 .255-.012.266-.27.267-.59 0-1.181-.005-1.772 0-.19 0-.269-.05-.269-.254.005-2.95.005-5.9 0-8.85 0-.187.061-.253.25-.252.9.007 1.801-.015 2.7.011.49.01.977.071 1.455.18.4.089.78.247 1.126.467.345.24.628.557.827.926.301.537.37 1.113.368 1.713 0 .253-.008.507 0 .761.02.443-.043.886-.184 1.306-.104.28-.254.541-.445.771-.173.22-.41.39-.613.589a.164.164 0 00-.037.15c.112.192.234.38.36.564.187.274.377.547.57.816.182.254.373.502.559.754.074.102.141.204.234.35zM9.82 3.82v1.75c-.02.18.063.259.24.234.188-.024.375-.053.562-.078.696-.108 1.21-.525 1.283-1.182.06-.545.113-1.11-.077-1.646a1.336 1.336 0 00-.35-.566 1.54 1.54 0 00-1.109-.397c-.109.006-.233.021-.325-.02-.227-.104-.227.026-.227.182.003.573.004 1.147.003 1.722zm-4.535.328c.3.277.623.531.887.837.16.183.233.444.342.67.24.49.162 1.02.099 1.511-.078.595-.312 1.181-.793 1.592-.397.35-.881.585-1.401.68-.779.14-1.558.046-2.336.07-.584.02-1.168 0-1.753.008-.188 0-.253-.062-.252-.25.004-2.952.004-5.903 0-8.855 0-.186.06-.252.25-.251.99.007 1.98-.028 2.97.014.746.031 1.479.19 2.024.775.304.31.48.723.492 1.157.005.215-.007.432 0 .646a1.557 1.557 0 01-.48 1.218.289.289 0 00-.056.086c-.02.042-.033.086-.049.13l.056-.038zM2.307 6.546v1.068c0 .145.05.224.203.21.284-.023.576-.015.849-.083.692-.172 1.075-.592.98-1.357-.037-.305-.1-.597-.368-.761a3.021 3.021 0 00-.8-.34c-.205-.053-.436-.006-.655-.012-.149-.004-.211.056-.21.206.004.354.001.71.001 1.066v.003zm0-3.815c0 .22.006.439 0 .658-.006.165.055.25.225.228.294-.036.594-.052.857-.214.351-.215.594-.554.36-1.023-.044-.09-.082-.211-.155-.25-.33-.165-.673-.29-1.053-.284-.166 0-.24.056-.234.228.006.217 0 .44 0 .655v.002zM31.64 4.832V.448c0-.282.005-.286.29-.287.893 0 1.79-.02 2.68.008.51.012 1.017.07 1.516.177a2.748 2.748 0 011.626 1.033c.174.229.288.507.407.773.212.478.208.99.205 1.5-.005.988.016 1.977-.007 2.964-.015.63-.254 1.188-.609 1.718-.253.377-.622.583-.972.814-.248.166-.583.229-.89.272-1.33.186-2.67.051-4.005.093-.195.006-.245-.078-.244-.255a816.3 816.3 0 00.003-4.426zm2.309-.007c0 .911.004 1.824 0 2.736 0 .19.055.29.257.263.181-.025.361-.061.545-.078.336-.033.65-.18.89-.418a1.414 1.414 0 00.414-1.017c.014-.837.01-1.673 0-2.51 0-.243-.058-.484-.07-.727-.027-.486-.39-.72-.737-.935a1.383 1.383 0 00-.885-.207.525.525 0 01-.163-.01c-.246-.052-.247-.054-.247.21-.003.896-.005 1.794-.004 2.693zM19.37.16h1.587c.342 0 .39.047.45.389.073.404.162.805.24 1.208.064.34.115.682.182 1.022.07.359.156.715.228 1.073.105.502.201 1.006.312 1.506.037.17.109.333.162.5.014.052.025.106.033.16l.234 1.214c.057.287.114.572.177.857.078.36.156.724.256 1.082.072.265.031.342-.24.342h-1.977c-.239 0-.311-.09-.349-.331a30.077 30.077 0 00-.252-1.462.22.22 0 00-.156-.135c-.604-.01-1.21-.01-1.814 0a.219.219 0 00-.155.14c-.09.445-.167.893-.247 1.34a.363.363 0 00-.007.082c.022.425-.055.364-.401.365h-1.918c-.155 0-.251 0-.186-.228.099-.351.123-.722.195-1.082.039-.197.11-.39.166-.58.012-.039.024-.078.031-.117.078-.41.16-.819.234-1.228.063-.34.11-.684.185-1.022.075-.337.179-.661.261-.994.043-.171.068-.346.102-.52.078-.388.161-.782.234-1.175.04-.206.061-.416.103-.623.03-.144.088-.282.12-.426.087-.41.16-.825.26-1.233.013-.056.14-.118.215-.119.58-.01 1.157-.005 1.735-.005zm-.722 5.721c.203.015.406.042.608.042.265 0 .529-.027.793-.042-.03-.283-.055-.567-.091-.849-.026-.202-.064-.401-.102-.6-.043-.22-.095-.436-.137-.655-.052-.276-.097-.554-.145-.832l-.145-.84c-.007-.04-.02-.077-.03-.119h-.057c-.025.123-.052.246-.074.369-.047.252-.088.506-.139.757-.045.223-.107.443-.147.667-.04.224-.06.457-.093.685-.031.207-.07.414-.105.623-.046.261-.09.528-.136.794zm34.814-.978c0 .295.01.59 0 .885-.02.497-.022.998-.094 1.489a2.688 2.688 0 01-.67 1.401c-.402.457-.908.72-1.469.895a4.016 4.016 0 01-1.78.122c-.512-.078-1.037-.219-1.466-.532a3.096 3.096 0 01-.953-1.106c-.207-.407-.256-.828-.304-1.275-.11-1.019-.065-2.037-.06-3.056a7.745 7.745 0 01.178-1.596c.067-.305.28-.58.439-.862.311-.56.864-.818 1.42-1.049.204-.084.435-.105.656-.136.276-.038.556-.093.832-.078.486.027.971.09 1.43.286.379.162.737.365 1.013.663.461.504.742 1.09.755 1.802.012.713.078 1.431.116 2.147h-.043zm-2.311-1.447a.72.72 0 01-.078-.18c-.035-.249-.04-.503-.093-.746-.068-.312-.168-.623-.52-.729-.195-.06-.4-.076-.603-.047-.345.052-.517.281-.631.545-.24.56-.226 1.175-.248 1.765-.032.843.04 1.69.068 2.535.011.337.064.666.243.958.18.292.428.505.818.473.343-.029.565-.228.725-.495.19-.316.242-.674.24-1.042a.778.778 0 01.079-.234 1.5 1.5 0 00.04-.238c.002-.791.002-1.582 0-2.372a.97.97 0 00-.04-.193zm9.945 1.48c0 .59-.019 1.181.006 1.77.02.444-.112.84-.25 1.247-.128.383-.38.68-.647.95-.342.348-.785.55-1.259.69-.42.124-.844.233-1.279.196-.484-.037-.974-.086-1.422-.311-.144-.071-.291-.137-.438-.205-.628-.298-.962-.852-1.235-1.448a1.863 1.863 0 01-.115-.536c-.166-1.323-.082-2.654-.07-3.98.004-.533.041-1.09.3-1.59.223-.433.561-.766.934-1.072a2.05 2.05 0 01.912-.43 6.93 6.93 0 01.759-.136c.24-.016.481-.017.721-.005a3.251 3.251 0 011.76.508c.593.381.997.888 1.183 1.56.081.297.164.592.15.915-.029.628-.01 1.253-.01 1.877zm-4.411 1.486c.053.263.115.525.155.789.087.535.342.808.883.846.209.015.43-.021.602-.229.316-.38.48-.864.462-1.359-.008-.837.007-1.674-.006-2.51 0-.422-.03-.844-.089-1.262-.066-.415-.246-.77-.714-.905-.395-.114-.959.138-1.048.503-.078.327-.259.631-.224.985 0 .018-.015.037-.025.055a1.499 1.499 0 00-.038.24c-.004.869-.004 1.738 0 2.608.007.08.02.16.041.239zM39.152 4.813V.453c0-.282.005-.287.29-.288.866 0 1.733-.02 2.598.008.51.008 1.018.068 1.516.181.447.111.93.21 1.287.538.236.235.455.487.653.754.082.1.146.214.187.336.083.236.145.479.186.725.03.215 0 .439.009.658 0 .094.037.185.049.279.017.1.024.202.021.303-.018.251-.072.5-.068.75.014.745-.318 1.33-.798 1.868-.311.342-.716.488-1.122.654a2.98 2.98 0 01-1.031.2c-.395.016-.788.06-1.182.079-.156.007-.206.065-.204.212 0 .521-.005 1.043 0 1.564.004.191-.068.251-.253.249-.623-.008-1.251 0-1.876 0-.253 0-.265-.014-.265-.272l.003-4.438zm2.404-2.932c-.005.098-.011.172-.011.245v3.439c0 .175.056.264.233.239a3.13 3.13 0 01.399-.072c.51-.005.874-.272 1.185-.636a.784.784 0 00.18-.294c.06-.216.094-.438.1-.662 0-.326-.05-.65-.077-.975-.04-.525-.49-1.053-1.007-1.147-.322-.059-.653-.09-1.002-.137zm20.492 2.933V.449c0-.282.004-.287.29-.288h1.752c.254 0 .265.011.265.27v7.085c0 .344 0 .344.337.345.68 0 1.36.005 2.041 0 .192 0 .273.054.267.257-.012.384-.01.768 0 1.152.005.192-.07.25-.254.249-1.479-.006-2.958 0-4.437 0-.254 0-.266-.013-.266-.271.003-1.48.004-2.957.005-4.434z"/><path d="M18.649 5.882h1.401c-.264.015-.528.04-.793.041-.202 0-.406-.026-.608-.041zm32.503.373V3.452c.02.062.032.126.039.19v2.372c-.007.081-.02.162-.04.24zm5.529-2.921v3.087a1.41 1.41 0 01-.038-.24c-.004-.868-.004-1.738 0-2.607.006-.081.019-.161.038-.24zm2.185 8.537c.058.401.116.803.177 1.204.022.14.06.279.078.419.014.119-.053.177-.172.174-.145 0-.307.036-.429-.018-.197-.087-.01-.251 0-.373.017-.288.103-.572.156-.856.02-.107.017-.217.037-.324.021-.083.047-.164.078-.243l.075.017z"/></g><defs><clipPath id="clip0_10645_1725"><path fill="#fff" d="M0 0h67v16H0z"/></clipPath></defs></svg>