<svg width="24" height="24" fill="none" xmlns="http://www.w3.org/2000/svg"><path d="M5.422 10.905v9.343h13.476v-9.343M2.695 20.248h18.663" stroke="#fff" stroke-width="1.5"/><path stroke="#fff" stroke-width="1.2" d="M8.303 15.237h2.946v5.019H8.303z"/><path d="M18.945 3.856H5.343l-2.55 3.643h18.49l-2.338-3.643z" stroke="#fff" stroke-width="1.5" stroke-linejoin="round"/><path fill-rule="evenodd" clip-rule="evenodd" d="M3.351 5.443A3.595 3.595 0 002 8.243c0 2.012 1.679 3.643 3.75 3.643a3.776 3.776 0 003.125-1.629A3.776 3.776 0 0012 11.886a3.776 3.776 0 003.125-1.628 3.776 3.776 0 003.125 1.628c2.07 0 3.75-1.631 3.75-3.643 0-1.402-.816-2.62-2.011-3.228v1.87c.322.375.51.852.51 1.358 0 1.143-.965 2.143-2.25 2.143-1.283 0-2.25-1-2.25-2.143H14.25c0 1.143-.966 2.143-2.25 2.143s-2.25-1-2.25-2.143H8c0 1.143-.966 2.143-2.25 2.143s-2.25-1-2.25-2.143h-.149v-2.8z" fill="#fff"/></svg>