<svg width="335" height="16" viewBox="0 0 335 16" fill="none" xmlns="http://www.w3.org/2000/svg">
<path d="M14.4545 5.32693C14.4241 4.63742 14.3126 4.16339 14.1529 3.75264C13.9881 3.31664 13.7346 2.92628 13.4024 2.60178C13.0779 2.27223 12.685 2.01615 12.2541 1.85395C11.8409 1.69422 11.3694 1.58272 10.6799 1.55232C9.98521 1.51934 9.76469 1.51172 8.00284 1.51172C6.241 1.51172 6.02048 1.51934 5.32839 1.54974C4.63889 1.58014 4.16486 1.69175 3.7542 1.85137C3.3181 2.01615 2.92775 2.26965 2.60324 2.60178C2.27369 2.92628 2.01771 3.31921 1.85541 3.75017C1.69569 4.16339 1.58418 4.63485 1.55378 5.32436C1.52081 6.01901 1.51318 6.23954 1.51318 8.00138C1.51318 9.76323 1.52081 9.98375 1.55121 10.6758C1.58161 11.3653 1.69321 11.8394 1.85294 12.2501C2.01771 12.6861 2.27369 13.0765 2.60324 13.401C2.92775 13.7305 3.32068 13.9866 3.75163 14.1488C4.16486 14.3085 4.63631 14.42 5.32592 14.4504C6.0179 14.4809 6.23853 14.4885 8.00037 14.4885C9.76221 14.4885 9.98274 14.4809 10.6748 14.4504C11.3643 14.42 11.8384 14.3085 12.249 14.1488C13.1211 13.8116 13.8106 13.1221 14.1478 12.2501C14.3074 11.8369 14.419 11.3653 14.4494 10.6758C14.4798 9.98375 14.4875 9.76323 14.4875 8.00138C14.4875 6.23954 14.4849 6.01901 14.4545 5.32693ZM13.2859 10.6251C13.258 11.2589 13.1515 11.6011 13.0628 11.8293C12.8447 12.3946 12.3961 12.8433 11.8307 13.0613C11.6026 13.1501 11.2579 13.2565 10.6266 13.2843C9.94214 13.3148 9.73686 13.3224 8.00542 13.3224C6.27398 13.3224 6.06613 13.3148 5.38415 13.2843C4.75039 13.2565 4.40816 13.1501 4.18001 13.0613C3.89868 12.9574 3.6426 12.7926 3.43475 12.5771C3.21927 12.3667 3.0545 12.1132 2.95052 11.8318C2.8618 11.6037 2.75535 11.2589 2.72752 10.6277C2.69702 9.94325 2.68949 9.73787 2.68949 8.00643C2.68949 6.27499 2.69702 6.06714 2.72752 5.38526C2.75535 4.7515 2.8618 4.40927 2.95052 4.18112C3.0545 3.89969 3.21927 3.64371 3.43733 3.43576C3.64765 3.22029 3.90116 3.05551 4.18258 2.95163C4.41074 2.86291 4.75554 2.75646 5.38672 2.72853C6.07118 2.69813 6.27655 2.69051 8.00789 2.69051C9.74191 2.69051 9.94719 2.69813 10.6292 2.72853C11.2629 2.75646 11.6052 2.86291 11.8333 2.95163C12.1146 3.05551 12.3707 3.22029 12.5786 3.43576C12.794 3.64619 12.9588 3.89969 13.0628 4.18112C13.1515 4.40927 13.258 4.75398 13.2859 5.38526C13.3163 6.06971 13.3239 6.27499 13.3239 8.00643C13.3239 9.73787 13.3163 9.94068 13.2859 10.6251Z" fill="white"/>
<path d="M8.04645 4.71191C6.20608 4.71191 4.71289 6.205 4.71289 8.04547C4.71289 9.88594 6.20608 11.379 8.04645 11.379C9.88692 11.379 11.38 9.88594 11.38 8.04547C11.38 6.205 9.88692 4.71191 8.04645 4.71191ZM8.04645 10.2079C6.85251 10.2079 5.88405 9.23951 5.88405 8.04547C5.88405 6.85143 6.85251 5.88308 8.04645 5.88308C9.24048 5.88308 10.2088 6.85143 10.2088 8.04547C10.2088 9.23951 9.24048 10.2079 8.04645 10.2079Z" fill="white"/>
<path d="M11.8696 3.89005C11.8696 4.31982 11.5211 4.66828 11.0912 4.66828C10.6615 4.66828 10.313 4.31982 10.313 3.89005C10.313 3.46018 10.6615 3.11182 11.0912 3.11182C11.5211 3.11182 11.8696 3.46018 11.8696 3.89005Z" fill="white"/>
<path d="M47.5546 11.4361C47.5358 11.3958 47.5184 11.3623 47.5022 11.3355C47.2339 10.8523 46.7213 10.2593 45.9646 9.55624L45.9486 9.54014L45.9406 9.53224L45.9325 9.52415H45.9244C45.5809 9.19676 45.3634 8.97663 45.2724 8.86393C45.1057 8.64925 45.0684 8.43194 45.1595 8.21175C45.2238 8.04539 45.4655 7.69406 45.884 7.15729C46.1041 6.87282 46.2785 6.64482 46.4072 6.47305C47.3358 5.23861 47.7383 4.44979 47.6148 4.10627L47.5669 4.02599C47.5346 3.97767 47.4514 3.93345 47.3174 3.89313C47.1831 3.8529 47.0114 3.84624 46.8021 3.87306L44.4836 3.88907C44.4461 3.87576 44.3924 3.877 44.3226 3.89313C44.2528 3.90926 44.2179 3.91735 44.2179 3.91735L44.1775 3.93751L44.1455 3.96173C44.1187 3.97775 44.0891 4.00592 44.0569 4.04618C44.0248 4.08631 43.998 4.13339 43.9766 4.18705C43.7242 4.83644 43.4372 5.44021 43.1151 5.99833C42.9165 6.33113 42.7342 6.61956 42.5676 6.86376C42.4013 7.10789 42.2617 7.28775 42.1491 7.40305C42.0363 7.51846 41.9345 7.61091 41.8431 7.68076C41.7519 7.75063 41.6822 7.78015 41.6339 7.76935C41.5856 7.75855 41.54 7.74783 41.4969 7.73712C41.4218 7.68879 41.3614 7.62307 41.3159 7.53989C41.2702 7.45671 41.2394 7.35201 41.2233 7.22589C41.2073 7.09968 41.1978 6.99113 41.1951 6.89986C41.1926 6.8087 41.1937 6.67975 41.1992 6.5134C41.2048 6.34695 41.2073 6.23434 41.2073 6.17529C41.2073 5.97132 41.2112 5.74995 41.2192 5.51113C41.2273 5.2723 41.2339 5.08308 41.2394 4.94367C41.2449 4.80413 41.2474 4.65649 41.2474 4.50085C41.2474 4.34521 41.2379 4.22314 41.2192 4.13455C41.2007 4.04607 41.1723 3.96018 41.1349 3.87692C41.0973 3.79374 41.0422 3.7294 40.9699 3.68372C40.8974 3.6381 40.8074 3.60189 40.7002 3.57499C40.4157 3.51062 40.0535 3.4758 39.6133 3.47038C38.6151 3.45967 37.9738 3.52413 37.6893 3.66367C37.5766 3.72263 37.4746 3.80319 37.3834 3.90509C37.2868 4.0232 37.2733 4.08766 37.3431 4.09826C37.6652 4.14651 37.8931 4.26191 38.0273 4.44437L38.0757 4.54106C38.1133 4.61082 38.1509 4.73432 38.1884 4.91139C38.226 5.08846 38.2502 5.28434 38.2609 5.49892C38.2876 5.89076 38.2876 6.22619 38.2609 6.50522C38.234 6.78436 38.2086 7.00167 38.1844 7.15732C38.1602 7.31296 38.124 7.43908 38.0757 7.53566C38.0273 7.63226 37.9952 7.6913 37.979 7.71273C37.9629 7.73416 37.9495 7.74767 37.9389 7.75297C37.8691 7.7797 37.7965 7.79332 37.7215 7.79332C37.6463 7.79332 37.5551 7.7557 37.4478 7.68053C37.3405 7.60536 37.2291 7.5021 37.1137 7.37059C36.9983 7.23906 36.8682 7.05525 36.7232 6.81913C36.5783 6.58301 36.4281 6.30395 36.2724 5.98195L36.1436 5.74843C36.0631 5.5982 35.9532 5.37945 35.8136 5.09238C35.674 4.8052 35.5506 4.52741 35.4433 4.25907C35.4004 4.14636 35.336 4.06056 35.2501 4.00152L35.2098 3.9773C35.1831 3.95587 35.1401 3.93311 35.0811 3.90887C35.022 3.88465 34.9604 3.86728 34.8959 3.85659L32.6901 3.87261C32.4647 3.87261 32.3118 3.92367 32.2313 4.02566L32.199 4.0739C32.1829 4.10077 32.1748 4.14369 32.1748 4.20276C32.1748 4.2618 32.1909 4.33427 32.2231 4.42007C32.5451 5.17686 32.8953 5.90672 33.2736 6.60977C33.652 7.31282 33.9808 7.87915 34.2598 8.30824C34.5388 8.73764 34.8233 9.14291 35.1131 9.52384C35.4029 9.90492 35.5948 10.1491 35.6886 10.2564C35.7826 10.3639 35.8564 10.4443 35.9101 10.4979L36.1114 10.6911C36.2402 10.8199 36.4293 10.9742 36.6789 11.154C36.9285 11.3338 37.2049 11.5109 37.5081 11.6855C37.8114 11.8597 38.1642 12.002 38.5668 12.112C38.9693 12.2221 39.361 12.2663 39.7421 12.2449H40.6679C40.8557 12.2287 40.9979 12.1697 41.0946 12.0678L41.1266 12.0274C41.1482 11.9954 41.1683 11.9456 41.1869 11.8787C41.2058 11.8116 41.2151 11.7377 41.2151 11.6573C41.2096 11.4266 41.2272 11.2186 41.2674 11.0335C41.3075 10.8484 41.3532 10.7089 41.4044 10.6149C41.4555 10.521 41.5132 10.4417 41.5774 10.3775C41.6417 10.3131 41.6876 10.2741 41.7145 10.2607C41.7412 10.2472 41.7625 10.2381 41.7786 10.2326C41.9074 10.1896 42.059 10.2312 42.2336 10.3574C42.4081 10.4836 42.5717 10.6393 42.7247 10.8244C42.8777 11.0096 43.0615 11.2175 43.2761 11.4482C43.4909 11.679 43.6787 11.8506 43.8396 11.9635L44.0006 12.0601C44.1081 12.1245 44.2476 12.1836 44.4194 12.2372C44.5908 12.2908 44.7411 12.3043 44.8701 12.2774L46.9309 12.2453C47.1347 12.2453 47.2933 12.2116 47.4058 12.1446C47.5185 12.0775 47.5855 12.0036 47.6071 11.9232C47.6286 11.8427 47.6298 11.7514 47.6112 11.6494C47.5921 11.5476 47.5733 11.4764 47.5546 11.4361Z" fill="white"/>
<path d="M73.0861 15.012V8.61536H75.2324L75.5543 6.12174H73.0861V4.52993C73.0861 3.8082 73.2857 3.31634 74.3219 3.31634L75.6412 3.3158V1.08542C75.4131 1.05577 74.6299 0.987793 73.7183 0.987793C71.8148 0.987793 70.5116 2.14967 70.5116 4.28296V6.12174H68.3589V8.61536H70.5116V15.012H73.0861Z" fill="white"/>
<g clip-path="url(#clip0_10575_1712)">
<path d="M301.473 15.7719H268.384C267.995 15.7719 267.995 15.7719 267.995 15.3826C267.995 13.8862 267.995 12.3898 267.995 10.8935C267.995 10.582 267.995 10.582 268.307 10.582H334.581C335.026 10.582 334.993 10.5501 334.993 10.9947C334.993 12.4703 334.993 13.9459 334.993 15.4215C334.993 15.7727 334.993 15.7734 334.642 15.7734L301.473 15.7719ZM326.791 11.0313C326.591 11.0313 326.392 11.025 326.193 11.0313C326.133 11.0313 326.037 11.0632 326.021 11.1045C325.958 11.2614 325.912 11.4241 325.881 11.5903C325.812 11.9702 325.763 12.354 325.694 12.734C325.624 13.1139 325.538 13.5047 325.46 13.8901C325.375 14.3137 325.296 14.7387 325.202 15.1607C325.172 15.2954 325.221 15.3445 325.339 15.3476C325.538 15.3538 325.737 15.3429 325.936 15.3538C326.134 15.3647 326.215 15.2448 326.239 15.0696C326.247 15.0089 326.239 14.9466 326.243 14.8851C326.262 14.5262 326.345 14.446 326.696 14.446H326.964C327.289 14.446 327.3 14.4577 327.314 14.7753C327.336 15.3048 327.385 15.3515 327.9 15.3515H328.023C328.345 15.3515 328.406 15.2464 328.327 14.9365C328.232 14.5698 328.171 14.1953 328.101 13.8216C328.031 13.4479 327.981 13.0711 327.912 12.6966C327.829 12.2435 327.727 11.7935 327.646 11.3396C327.606 11.1107 327.533 11.0282 327.302 11.0282L326.791 11.0313ZM330.328 11.0313V11.0562C330.027 11.0562 329.71 10.9955 329.428 11.0679C328.709 11.2524 328.634 11.9554 328.761 12.5775C328.789 12.7314 328.86 12.874 328.967 12.988C329.074 13.1021 329.212 13.1826 329.364 13.2198C329.555 13.2653 329.749 13.2914 329.945 13.2976C330.247 13.3171 330.56 13.5803 330.577 13.8426C330.605 14.2662 330.454 14.4888 330.059 14.5433C329.8 14.5677 329.54 14.5773 329.281 14.5721C328.645 14.5846 328.736 14.4725 328.723 15.1522C328.723 15.3079 328.792 15.3561 328.936 15.3538C329.211 15.3484 329.488 15.3367 329.761 15.3538C330.107 15.3795 330.423 15.2759 330.742 15.1716C331.06 15.0673 331.239 14.8509 331.365 14.5589C331.504 14.2335 331.472 13.8917 331.431 13.5662C331.413 13.4024 331.356 13.2452 331.266 13.1074C331.175 12.9696 331.054 12.855 330.911 12.7729C330.615 12.5931 330.315 12.5993 330.001 12.5931C329.758 12.5884 329.528 12.3844 329.518 12.1695C329.508 11.9546 329.752 11.7304 330.003 11.7265C330.271 11.7218 330.539 11.7265 330.807 11.7265C331.329 11.7203 331.281 11.8153 331.282 11.2135C331.282 11.0827 331.224 11.0274 331.095 11.0289C330.838 11.0352 330.583 11.0328 330.328 11.0328V11.0313ZM322.784 13.1801C322.784 13.8112 322.784 14.4424 322.784 15.0735C322.784 15.3375 322.805 15.3577 323.063 15.3593C323.482 15.3593 323.902 15.3593 324.32 15.3593C324.884 15.3546 324.843 15.4519 324.838 14.7995C324.838 14.6438 324.76 14.5768 324.605 14.5799C324.405 14.5838 324.206 14.5737 324.007 14.5799C323.831 14.5877 323.756 14.5239 323.763 14.3425C323.772 14.0816 323.775 13.8201 323.763 13.5639C323.753 13.3654 323.828 13.3 324.025 13.3031C324.506 13.3093 324.469 13.3669 324.47 12.8437C324.47 12.8235 324.47 12.8025 324.47 12.7822C324.474 12.6623 324.416 12.6055 324.295 12.6071C324.175 12.6086 324.062 12.6071 323.945 12.6071C323.828 12.6071 323.767 12.5533 323.768 12.4334C323.768 12.2777 323.774 12.1174 323.768 11.9601C323.757 11.7857 323.839 11.7265 324.001 11.7374C324.131 11.7444 324.262 11.7374 324.39 11.7374C324.844 11.7374 324.837 11.7374 324.84 11.2897C324.84 11.1076 324.786 11.0313 324.592 11.0352C324.07 11.0445 323.547 11.0445 323.026 11.0352C322.833 11.0313 322.775 11.106 322.777 11.289C322.787 11.9134 322.784 12.5448 322.784 13.1801ZM332.983 11.0352C332.694 11.0352 332.406 11.0352 332.118 11.0352C331.609 11.0414 331.65 10.9472 331.65 11.5576C331.65 11.6767 331.703 11.7351 331.824 11.7335C331.945 11.732 332.085 11.7335 332.213 11.7335C332.513 11.7335 332.515 11.7335 332.515 12.0278C332.515 12.9398 332.515 13.8515 332.515 14.7629C332.515 15.3624 332.515 15.3624 333.114 15.3585C333.404 15.3585 333.419 15.3429 333.419 15.058C333.419 14.0365 333.419 13.015 333.419 11.9936C333.419 11.7981 333.485 11.7117 333.682 11.7327C333.73 11.7359 333.778 11.7359 333.826 11.7327C334.335 11.7265 334.286 11.802 334.293 11.25C334.293 11.0943 334.234 11.0289 334.075 11.032C333.709 11.0359 333.345 11.0313 332.981 11.0313L332.983 11.0352Z" fill="white"/>
<path d="M296.618 5.20646C296.628 5.17456 296.632 5.14099 296.63 5.10759C296.474 4.54859 296.624 3.97168 296.539 3.41423C296.392 2.43014 296.51 1.44527 296.469 0.461958C296.457 0.16455 296.469 0.161437 296.764 0.160658C297.355 0.160658 297.946 0.165329 298.536 0.160658C298.715 0.160658 298.778 0.221386 298.777 0.399675C298.774 3.35818 298.774 6.31668 298.777 9.27519C298.777 9.4706 298.699 9.52199 298.519 9.51965C297.991 9.51187 297.46 9.50797 296.932 9.51965C296.852 9.52963 296.77 9.51192 296.702 9.46944C296.633 9.42697 296.58 9.36229 296.553 9.28609C296.251 8.65001 295.944 8.01627 295.624 7.38953C295.282 6.72075 294.923 6.06132 294.574 5.39643C294.486 5.22982 294.412 5.05543 294.331 4.88492L294.254 4.89349C294.254 5.02584 294.244 5.15897 294.254 5.29055C294.271 5.49297 294.31 5.69384 294.322 5.89626C294.334 6.09869 294.295 6.31279 294.33 6.51288C294.48 7.36929 294.437 8.23582 294.443 9.09924C294.443 9.5142 294.443 9.5142 294.033 9.5142C293.483 9.5142 292.933 9.50875 292.384 9.5142C292.196 9.5142 292.132 9.45114 292.133 9.26351C292.137 6.31331 292.137 3.36285 292.133 0.412132C292.133 0.229172 292.187 0.15443 292.38 0.158322C292.868 0.168444 293.356 0.165329 293.843 0.158322C293.901 0.151993 293.958 0.16474 294.008 0.194584C294.057 0.224428 294.095 0.2697 294.116 0.323375C294.52 1.14397 294.933 1.95834 295.34 2.77893C295.598 3.29823 295.847 3.8222 296.108 4.34071C296.257 4.63734 296.42 4.92619 296.575 5.21814L296.618 5.20646Z" fill="white"/>
<path d="M282.677 9.51067H282.397C281.641 9.51067 280.885 9.49666 280.129 9.51845C280.025 9.52835 279.921 9.50628 279.83 9.4552C279.739 9.40412 279.667 9.32649 279.621 9.23273C279.371 8.81283 279.119 8.39371 278.865 7.97537C278.85 7.95201 278.826 7.9341 278.816 7.90919C278.685 7.53937 278.416 7.44205 278.045 7.48487C277.879 7.50512 277.816 7.55339 277.818 7.71844C277.824 8.22606 277.818 8.73056 277.818 9.24207C277.818 9.49666 277.806 9.50833 277.549 9.50911C276.958 9.50911 276.367 9.50366 275.776 9.50911C275.586 9.50911 275.507 9.45929 275.507 9.25531C275.512 6.30459 275.512 3.35439 275.507 0.404708C275.507 0.217855 275.568 0.151677 275.757 0.153234C276.657 0.160241 277.558 0.137664 278.457 0.164135C278.947 0.174746 279.434 0.235003 279.912 0.343981C280.311 0.432999 280.693 0.591079 281.038 0.811113C281.382 1.05066 281.666 1.36774 281.865 1.73681C282.166 2.27401 282.235 2.85014 282.233 3.44963C282.233 3.70344 282.225 3.95725 282.233 4.21106C282.252 4.6541 282.19 5.0969 282.05 5.51747C281.945 5.79752 281.795 6.05807 281.604 6.28824C281.431 6.50857 281.193 6.67751 280.991 6.87682C280.973 6.89686 280.96 6.92096 280.954 6.94701C280.947 6.97307 280.948 7.0003 280.954 7.02631C281.066 7.21939 281.188 7.40624 281.315 7.59076C281.501 7.86533 281.691 8.13756 281.884 8.40746C282.066 8.66127 282.257 8.90885 282.443 9.1611C282.517 9.26309 282.584 9.36508 282.677 9.51067ZM277.82 3.81944V5.55017C277.821 5.55691 277.821 5.56367 277.82 5.57041C277.8 5.75026 277.883 5.82889 278.059 5.80398C278.248 5.77984 278.435 5.75104 278.622 5.72612C279.318 5.6179 279.832 5.2006 279.905 4.54428C279.965 3.99929 280.017 3.43328 279.828 2.89764C279.761 2.68251 279.64 2.4878 279.478 2.33163C279.176 2.0577 278.777 1.9149 278.369 1.93457C278.26 1.94079 278.136 1.95636 278.044 1.91432C277.817 1.81077 277.817 1.94079 277.817 2.09651C277.82 2.66952 277.821 3.24383 277.82 3.81944Z" fill="white"/>
<path d="M273.285 4.14843C273.584 4.42482 273.908 4.67941 274.172 4.9846C274.332 5.16834 274.405 5.42915 274.514 5.65571C274.754 6.14464 274.676 6.67562 274.613 7.16611C274.535 7.76092 274.301 8.34717 273.82 8.75825C273.423 9.10749 272.939 9.34263 272.419 9.43871C271.64 9.57807 270.861 9.48386 270.083 9.50877C269.499 9.52824 268.915 9.50878 268.33 9.51578C268.142 9.51578 268.077 9.45428 268.078 9.26587C268.082 6.31411 268.082 3.36261 268.078 0.411375C268.078 0.225301 268.138 0.159123 268.328 0.159902C269.318 0.166909 270.309 0.131876 271.297 0.173918C272.044 0.20506 272.777 0.364662 273.322 0.948577C273.626 1.25843 273.801 1.67164 273.814 2.10551C273.819 2.32117 273.807 2.53761 273.814 2.75249C273.827 2.97815 273.791 3.20397 273.708 3.41424C273.625 3.62452 273.497 3.81421 273.333 3.97014C273.31 3.99519 273.291 4.02419 273.278 4.05579C273.259 4.09783 273.245 4.14221 273.229 4.1858L273.285 4.14843ZM270.307 6.5456C270.307 6.9014 270.307 7.25798 270.307 7.61378C270.307 7.75859 270.358 7.838 270.51 7.82476C270.794 7.80063 271.086 7.80919 271.359 7.74146C272.051 7.5694 272.434 7.14898 272.339 6.38366C272.302 6.07925 272.24 5.78651 271.971 5.62301C271.722 5.47167 271.453 5.35708 271.171 5.28279C270.966 5.22985 270.735 5.27656 270.516 5.27111C270.367 5.26722 270.305 5.32716 270.306 5.47743C270.31 5.83089 270.307 6.18747 270.307 6.54327V6.5456ZM270.307 2.73069C270.307 2.95024 270.313 3.16979 270.307 3.38856C270.301 3.55362 270.362 3.63926 270.532 3.61746C270.826 3.58087 271.126 3.5653 271.389 3.40336C271.74 3.18848 271.983 2.84903 271.75 2.37956C271.705 2.2908 271.667 2.16857 271.594 2.13042C271.265 1.96459 270.921 1.8408 270.541 1.84625C270.375 1.84625 270.302 1.90231 270.307 2.07359C270.313 2.2908 270.306 2.51347 270.306 2.72913L270.307 2.73069Z" fill="white"/>
<path d="M299.64 4.83235C299.64 3.37127 299.64 1.90992 299.64 0.448318C299.64 0.166482 299.645 0.16181 299.929 0.161031C300.823 0.161031 301.72 0.141568 302.609 0.168817C303.119 0.180734 303.627 0.239897 304.126 0.345548C304.775 0.482376 305.353 0.849326 305.752 1.37869C305.926 1.60759 306.04 1.88553 306.159 2.15179C306.371 2.62983 306.367 3.14134 306.364 3.65285C306.36 4.64005 306.38 5.62881 306.357 6.61602C306.342 7.24587 306.103 7.80409 305.748 8.33351C305.495 8.71111 305.126 8.91665 304.776 9.14788C304.528 9.31371 304.193 9.37677 303.887 9.41959C302.556 9.60645 301.216 9.47098 299.881 9.51302C299.686 9.51925 299.636 9.43516 299.637 9.25765C299.642 7.78203 299.643 6.30693 299.64 4.83235ZM301.949 4.82457C301.949 5.73625 301.953 6.64872 301.949 7.56119C301.949 7.75193 302.004 7.85081 302.206 7.82356C302.387 7.79864 302.567 7.76283 302.751 7.7457C303.087 7.71273 303.402 7.5651 303.642 7.32762C303.775 7.19425 303.88 7.03559 303.951 6.86098C304.022 6.68636 304.057 6.49931 304.055 6.31083C304.069 5.47388 304.065 4.63771 304.055 3.80077C304.055 3.55786 303.997 3.31651 303.984 3.0736C303.958 2.58778 303.595 2.35422 303.248 2.13934C302.985 1.97256 302.673 1.89959 302.363 1.93224C302.309 1.9377 302.253 1.93455 302.2 1.9229C301.954 1.86996 301.953 1.8684 301.953 2.13155C301.95 3.02844 301.949 3.92612 301.949 4.82457Z" fill="white"/>
<path d="M287.37 0.159767H288.957C289.299 0.159767 289.346 0.207259 289.406 0.549044C289.48 0.953114 289.569 1.35407 289.646 1.75736C289.711 2.09759 289.762 2.43937 289.829 2.77882C289.899 3.13774 289.985 3.49354 290.057 3.85167C290.162 4.35384 290.258 4.85756 290.369 5.35817C290.406 5.52867 290.478 5.69139 290.531 5.858C290.545 5.91048 290.556 5.96378 290.564 6.01761C290.642 6.42245 290.72 6.8273 290.798 7.23215C290.855 7.51866 290.912 7.80439 290.975 8.08856C291.053 8.44981 291.131 8.81339 291.231 9.17075C291.303 9.43624 291.263 9.51253 290.991 9.51331H289.014C288.775 9.51331 288.703 9.42378 288.665 9.18165C288.593 8.69272 288.51 8.20612 288.413 7.7203C288.4 7.68669 288.379 7.65675 288.352 7.63313C288.325 7.60951 288.292 7.59292 288.257 7.58484C287.653 7.57445 287.048 7.57445 286.443 7.58484C286.408 7.59338 286.375 7.61076 286.347 7.63539C286.32 7.66001 286.3 7.69109 286.288 7.72575C286.197 8.17031 286.121 8.61798 286.041 9.06487C286.035 9.09203 286.033 9.11971 286.034 9.14739C286.056 9.5717 285.979 9.51098 285.633 9.51175C284.994 9.51175 284.354 9.51175 283.715 9.51175C283.56 9.51175 283.464 9.51176 283.529 9.28364C283.628 8.93251 283.652 8.56192 283.724 8.20223C283.763 8.00525 283.834 7.81295 283.89 7.6222C283.902 7.58328 283.914 7.54435 283.922 7.50464C283.999 7.09512 284.081 6.68639 284.155 6.27687C284.218 5.93664 284.266 5.59329 284.34 5.2554C284.415 4.91751 284.519 4.59363 284.601 4.26119C284.644 4.08991 284.669 3.91473 284.703 3.74189C284.781 3.35262 284.864 2.95867 284.937 2.56628C284.976 2.35996 284.998 2.14975 285.04 1.94343C285.069 1.7994 285.128 1.66082 285.159 1.51679C285.247 1.10649 285.321 0.692298 285.419 0.283557C285.433 0.22828 285.56 0.165996 285.635 0.165218C286.215 0.155097 286.792 0.159767 287.37 0.159767ZM286.648 5.88136C286.85 5.89615 287.054 5.9234 287.256 5.92262C287.521 5.92262 287.785 5.89615 288.049 5.88136C288.019 5.59797 287.994 5.31379 287.958 5.03196C287.932 4.83031 287.894 4.631 287.856 4.43169C287.814 4.21292 287.761 3.9957 287.719 3.77693C287.667 3.50054 287.622 3.2226 287.574 2.94466C287.525 2.66671 287.478 2.38488 287.429 2.10537C287.422 2.06489 287.409 2.02752 287.399 1.98626H287.342C287.317 2.10927 287.29 2.2315 287.268 2.35451C287.221 2.60676 287.18 2.86057 287.129 3.11204C287.084 3.33549 287.022 3.55504 286.982 3.77926C286.942 4.00349 286.923 4.23627 286.889 4.46439C286.857 4.67149 286.819 4.8778 286.783 5.08723C286.738 5.34805 286.693 5.61509 286.648 5.88136Z" fill="white"/>
<path d="M321.462 4.90281C321.462 5.19788 321.472 5.49373 321.462 5.78802C321.441 6.28474 321.44 6.78613 321.368 7.27661C321.287 7.79945 321.055 8.28693 320.698 8.67801C320.296 9.13502 319.79 9.3974 319.229 9.57257C318.652 9.74636 318.044 9.78813 317.449 9.6948C316.937 9.61695 316.412 9.47603 315.983 9.16305C315.582 8.87561 315.255 8.49628 315.03 8.05673C314.823 7.64954 314.774 7.22912 314.726 6.78223C314.616 5.76311 314.661 4.74476 314.667 3.72641C314.671 3.18969 314.73 2.6548 314.844 2.13038C314.911 1.82518 315.124 1.55035 315.283 1.26774C315.594 0.70796 316.147 0.450259 316.704 0.219028C316.907 0.134944 317.138 0.113923 317.359 0.0827813C317.635 0.0446322 317.915 -0.00986657 318.191 0.00492594C318.677 0.0321753 319.162 0.0944583 319.622 0.290654C320 0.452593 320.358 0.655797 320.634 0.953983C321.095 1.45771 321.376 2.04396 321.389 2.75633C321.401 3.46871 321.467 4.18732 321.505 4.90281H321.462ZM319.151 3.45625C319.116 3.39991 319.09 3.33913 319.073 3.27563C319.038 3.02727 319.034 2.77346 318.98 2.52977C318.912 2.21835 318.812 1.90693 318.46 1.80105C318.265 1.74074 318.059 1.72452 317.857 1.75356C317.512 1.8065 317.34 2.03539 317.226 2.29854C316.985 2.85832 317 3.47416 316.978 4.06353C316.946 4.9067 317.017 5.75377 317.046 6.59928C317.057 6.93561 317.11 7.26494 317.289 7.5569C317.468 7.84885 317.717 8.06218 318.107 8.03026C318.45 8.00145 318.672 7.80214 318.832 7.53509C319.022 7.219 319.074 6.86087 319.073 6.49261C319.086 6.41112 319.112 6.33228 319.151 6.25905C319.17 6.18084 319.184 6.10117 319.19 6.02081C319.193 5.2298 319.193 4.43905 319.19 3.64856C319.184 3.58328 319.17 3.51884 319.151 3.45625Z" fill="white"/>
<path d="M329.096 4.9364C329.096 5.52655 329.077 6.11747 329.102 6.70683C329.121 7.14983 328.99 7.54534 328.853 7.95252C328.724 8.33635 328.472 8.63219 328.205 8.90313C327.863 9.25115 327.42 9.45357 326.946 9.59293C326.526 9.71672 326.102 9.8265 325.667 9.78913C325.183 9.75176 324.693 9.70271 324.245 9.4777C324.101 9.40686 323.953 9.34146 323.807 9.27294C323.179 8.97476 322.845 8.42121 322.572 7.82484C322.508 7.65294 322.469 7.47244 322.457 7.28919C322.29 5.96565 322.375 4.6351 322.386 3.30845C322.391 2.77592 322.428 2.21847 322.687 1.71864C322.91 1.28576 323.248 0.952543 323.621 0.64735C323.884 0.430176 324.198 0.282187 324.533 0.21681C324.783 0.157956 325.037 0.112476 325.292 0.0805634C325.532 0.0653765 325.773 0.0638171 326.014 0.0758923C326.637 0.0730121 327.247 0.249207 327.773 0.583508C328.366 0.965 328.77 1.47184 328.956 2.14451C329.037 2.44114 329.12 2.73621 329.106 3.05931C329.077 3.68682 329.096 4.312 329.096 4.9364ZM324.685 6.42188C324.738 6.68503 324.8 6.94663 324.84 7.21056C324.927 7.7462 325.182 8.01947 325.723 8.05684C325.932 8.07164 326.153 8.03582 326.325 7.82795C326.641 7.44753 326.806 6.96374 326.787 6.46937C326.779 5.63243 326.794 4.79548 326.781 3.95932C326.781 3.53707 326.752 3.11535 326.692 2.69728C326.626 2.28153 326.446 1.92651 325.978 1.79182C325.583 1.67815 325.019 1.93041 324.93 2.29477C324.852 2.62176 324.671 2.92618 324.706 3.27964C324.706 3.29755 324.691 3.31701 324.681 3.33492C324.662 3.41367 324.649 3.49386 324.642 3.57471C324.639 4.44358 324.639 5.31296 324.642 6.18286C324.65 6.26359 324.664 6.34356 324.685 6.42188Z" fill="white"/>
<path d="M307.152 4.81324V0.453337C307.152 0.170722 307.157 0.166049 307.442 0.165271C308.308 0.165271 309.175 0.145029 310.04 0.173057C310.55 0.180513 311.058 0.241313 311.556 0.354461C312.003 0.465016 312.485 0.564671 312.842 0.892442C313.079 1.12694 313.298 1.37886 313.496 1.64608C313.578 1.74605 313.642 1.85998 313.683 1.98242C313.766 2.21817 313.828 2.4607 313.869 2.70725C313.9 2.92213 313.869 3.14558 313.878 3.36513C313.878 3.45855 313.915 3.55042 313.927 3.64385C313.944 3.74412 313.951 3.84583 313.948 3.94749C313.93 4.19818 313.876 4.44732 313.88 4.69646C313.894 5.44231 313.562 6.02701 313.082 6.56499C312.771 6.90677 312.366 7.05314 311.96 7.21897C311.631 7.34647 311.282 7.41448 310.929 7.41984C310.534 7.43463 310.141 7.47823 309.747 7.49769C309.591 7.5047 309.541 7.56309 309.543 7.71024C309.543 8.23109 309.538 8.75272 309.543 9.27435C309.547 9.4651 309.475 9.52505 309.29 9.52271C308.667 9.51493 308.039 9.52271 307.414 9.52271C307.161 9.52271 307.149 9.50948 307.149 9.251C307.15 7.77019 307.152 6.29093 307.152 4.81324ZM309.556 1.8812C309.552 1.9793 309.545 2.05326 309.545 2.12645C309.545 2.44254 309.545 2.75786 309.545 3.07317C309.545 3.90389 309.545 4.7346 309.545 5.56454C309.545 5.73972 309.601 5.82925 309.778 5.80356C309.909 5.7711 310.042 5.74718 310.177 5.73193C310.687 5.72726 311.051 5.46022 311.362 5.09585C311.443 5.01226 311.504 4.91173 311.542 4.80156C311.602 4.586 311.636 4.36372 311.643 4.13979C311.643 3.81435 311.592 3.4897 311.565 3.16504C311.525 2.63951 311.074 2.11244 310.558 2.01823C310.236 1.95906 309.905 1.92792 309.556 1.8812Z" fill="white"/>
<path d="M330.048 4.81377C330.048 3.36047 330.048 1.90561 330.048 0.449199C330.048 0.166584 330.052 0.161911 330.337 0.161133C330.921 0.161133 331.505 0.161133 332.09 0.161133C332.344 0.161133 332.355 0.172033 332.355 0.431291C332.355 2.79187 332.355 5.15348 332.355 7.51613C332.355 7.86025 332.355 7.86025 332.692 7.86103C333.372 7.86103 334.053 7.8657 334.733 7.86103C334.925 7.86103 335.006 7.91475 335 8.11795C334.988 8.50178 334.989 8.88639 335 9.27021C335.005 9.46174 334.931 9.51935 334.746 9.51857C333.267 9.51312 331.788 9.51857 330.308 9.51857C330.055 9.51857 330.043 9.50611 330.043 9.24763C330.046 7.7689 330.047 6.29095 330.048 4.81377Z" fill="white"/>
<path d="M286.649 5.88184H288.05C287.786 5.89663 287.522 5.92154 287.257 5.9231C287.055 5.92388 286.851 5.89663 286.649 5.88184Z" fill="white"/>
<path d="M319.152 6.25494C319.152 5.32068 319.152 4.38641 319.152 3.45215C319.171 3.51401 319.184 3.57765 319.191 3.64212C319.191 4.43313 319.191 5.22388 319.191 6.01437C319.184 6.09549 319.171 6.17595 319.152 6.25494Z" fill="white"/>
<path d="M324.681 3.33398V6.42095C324.662 6.34254 324.649 6.26257 324.642 6.18193C324.639 5.31255 324.639 4.44316 324.642 3.57378C324.649 3.49293 324.662 3.41274 324.681 3.33398Z" fill="white"/>
<path d="M326.866 11.8714C326.924 12.2724 326.982 12.6741 327.043 13.0751C327.065 13.2152 327.103 13.3538 327.121 13.4939C327.135 13.613 327.068 13.6714 326.949 13.6683C326.805 13.6683 326.642 13.7041 326.52 13.6504C326.323 13.5632 326.51 13.3989 326.52 13.2775C326.537 12.9894 326.623 12.7053 326.676 12.4211C326.696 12.3144 326.693 12.2039 326.713 12.0972C326.734 12.0144 326.76 11.933 326.791 11.8535L326.866 11.8714Z" fill="white"/>
</g>
<defs>
<clipPath id="clip0_10575_1712">
<rect width="67" height="16" fill="white" transform="translate(268)"/>
</clipPath>
</defs>
</svg>
