<svg width="16" height="12" viewBox="0 0 16 12" fill="none" xmlns="http://www.w3.org/2000/svg">
<path fill-rule="evenodd" clip-rule="evenodd" d="M1.00011 1V0.5H0.500112V1H1.00011ZM1.00011 1L0.500112 1.00001V1.00003V1.00006V1.0001V1.00016V1.00023V1.00031V1.00041V1.00052V1.00064V1.00077V1.00092V1.00108V1.00125V1.00144V1.00163V1.00184V1.00207V1.0023V1.00255V1.00281V1.00308V1.00337V1.00366V1.00397V1.00429V1.00463V1.00498V1.00533V1.00571V1.00609V1.00648V1.00689V1.00731V1.00775V1.00819V1.00865V1.00912V1.0096V1.01009V1.0106V1.01111V1.01164V1.01218V1.01274V1.0133V1.01388V1.01447V1.01507V1.01569V1.01631V1.01695V1.0176V1.01826V1.01893V1.01961V1.02031V1.02102V1.02174V1.02247V1.02321V1.02397V1.02473V1.02551V1.0263V1.0271V1.02792V1.02874V1.02958V1.03042V1.03128V1.03215V1.03304V1.03393V1.03483V1.03575V1.03668V1.03762V1.03857V1.03953V1.0405V1.04149V1.04248V1.04349V1.04451V1.04554V1.04658V1.04763V1.04869V1.04977V1.05085V1.05195V1.05305V1.05417V1.0553V1.05644V1.05759V1.05876V1.05993V1.06111V1.06231V1.06351V1.06473V1.06596V1.0672V1.06845V1.06971V1.07098V1.07226V1.07355V1.07486V1.07617V1.07749V1.07883V1.08018V1.08153V1.0829V1.08428V1.08567V1.08706V1.08847V1.08989V1.09132V1.09277V1.09422V1.09568V1.09715V1.09863V1.10013V1.10163V1.10314V1.10467V1.1062V1.10775V1.1093V1.11086V1.11244V1.11403V1.11562V1.11723V1.11884V1.12047V1.1221V1.12375V1.12541V1.12707V1.12875V1.13044V1.13213V1.13384V1.13555V1.13728V1.13902V1.14076V1.14252V1.14428V1.14606V1.14784V1.14964V1.15144V1.15326V1.15508V1.15692V1.15876V1.16061V1.16248V1.16435V1.16623V1.16812V1.17002V1.17193V1.17385V1.17578V1.17772V1.17967V1.18163V1.1836V1.18558V1.18756V1.18956V1.19156V1.19358V1.1956V1.19764V1.19968V1.20173V1.20379V1.20586V1.20794V1.21003V1.21213V1.21423V1.21635V1.21847V1.22061V1.22275V1.2249V1.22707V1.22924V1.23142V1.2336V1.2358V1.23801V1.24022V1.24245V1.24468V1.24692V1.24917V1.25143V1.2537V1.25597V1.25826V1.26055V1.26286V1.26517V1.26749V1.26982V1.27216V1.2745V1.27686V1.27922V1.28159V1.28397V1.28636V1.28876V1.29117V1.29358V1.296V1.29843V1.30087V1.30332V1.30578V1.30824V1.31072V1.3132V1.31569V1.31818V1.32069V1.3232V1.32573V1.32826V1.3308V1.33334V1.3359V1.33846V1.34103V1.34361V1.3462V1.3488V1.3514V1.35401V1.35663V1.35926V1.36189V1.36454V1.36719V1.36985V1.37251V1.37519V1.37787V1.38056V1.38326V1.38596V1.38868V1.3914V1.39413V1.39686V1.39961V1.40236V1.40512V1.40789V1.41066V1.41344V1.41623V1.41903V1.42184V1.42465V1.42747V1.43029V1.43313V1.43597V1.43882V1.44168V1.44454V1.44741V1.45029V1.45318V1.45607V1.45897V1.46188V1.46479V1.46771V1.47064V1.47358V1.47652V1.47947V1.48243V1.4854V1.48837V1.49135V1.49433V1.49733V1.50033V1.50333V1.50635V1.50937V1.51239V1.51543V1.51847V1.52152V1.52457V1.52763V1.5307V1.53378V1.53686V1.53995V1.54304V1.54614V1.54925V1.55237V1.55549V1.55862V1.56175V1.56489V1.56804V1.5712V1.57436V1.57753V1.5807V1.58388V1.58707V1.59026V1.59346V1.59667V1.59988V1.6031V1.60632V1.60955V1.61279V1.61604V1.61929V1.62254V1.6258V1.62907V1.63235V1.63563V1.63892V1.64221V1.64551V1.64881V1.65212V1.65544V1.65876V1.66209V1.66543V1.66877V1.67212V1.67547V1.67883V1.68219V1.68556V1.68894V1.69232V1.69571V1.6991V1.7025V1.70591V1.70932V1.71273V1.71616V1.71958V1.72302V1.72646V1.7299V1.73335V1.73681V1.74027V1.74373V1.74721V1.75068V1.75417V1.75766V1.76115V1.76465V1.76815V1.77166V1.77518V1.7787V1.78222V1.78576V1.78929V1.79283V1.79638V1.79993V1.80349V1.80705V1.81062V1.81419V1.81777V1.82135V1.82494V1.82853V1.83213V1.83573V1.83934V1.84295V1.84657V1.85019V1.85382V1.85745V1.86109V1.86473V1.86838V1.87203V1.87569V1.87935V1.88301V1.88669V1.89036V1.89404V1.89773V1.90141V1.90511V1.90881V1.91251V1.91622V1.91993V1.92365V1.92737V1.93109V1.93482V1.93856V1.9423V1.94604V1.94979V1.95354V1.9573V1.96106V1.96482V1.96859V1.97237V1.97615V1.97993V1.98371V1.9875V1.9913V1.9951V1.9989V2.00271V2.00652V2.01034V2.01415V2.01798V2.02181V2.02564V2.02947V2.03331V2.03716V2.041V2.04485V2.04871V2.05257V2.05643V2.0603V2.06417V2.06804V2.07192V2.0758V2.07969V2.08358V2.08747V2.09136V2.09526V2.09917V2.10308V2.10699V2.1109V2.11482V2.11874V2.12267V2.12659V2.13053V2.13446V2.1384V2.14234V2.14629V2.15024V2.15419V2.15815V2.1621V2.16607V2.17003V2.174V2.17797V2.18195V2.18593V2.18991V2.19389V2.19788V2.20187V2.20587V2.20986V2.21386V2.21787V2.22187V2.22588V2.22989V2.23391V2.23793V2.24195V2.24597V2.24967V2.25L0.500111 2.25045L0.500107 2.25374L0.50009 2.26674L0.500023 2.31753L0.499772 2.51094L0.498874 3.20645L0.49615 5.36363C0.494169 6.96346 0.492188 8.64997 0.492188 8.99412V9.49412H0.992188H1.80528C2.03761 10.5788 3.00048 11.5 4.18193 11.5C5.33388 11.5 6.305 10.7029 6.53792 9.625H9.46231C9.69522 10.7029 10.6663 11.5 11.8183 11.5C12.9702 11.5 13.9414 10.7029 14.1743 9.625H14.3637H15.0001H15.5001V9.125V6.41875C15.5001 6.03873 15.374 5.67079 15.1443 5.36713L15.1431 5.3655L13.6795 3.44675L13.6732 3.43853L13.6666 3.43058L13.459 3.18058L13.309 3H13.0743H11.6819V1V0.5H11.1819H11.1819H11.1819H11.1818H11.1817H11.1816H11.1815H11.1814H11.1812H11.1811H11.1809H11.1807H11.1804H11.1802H11.18H11.1797H11.1794H11.1791H11.1788H11.1784H11.1781H11.1777H11.1773H11.1769H11.1765H11.1761H11.1756H11.1751H11.1747H11.1742H11.1736H11.1731H11.1725H11.172H11.1714H11.1708H11.1702H11.1695H11.1689H11.1682H11.1675H11.1669H11.1661H11.1654H11.1647H11.1639H11.1631H11.1623H11.1615H11.1607H11.1599H11.159H11.1582H11.1573H11.1564H11.1555H11.1545H11.1536H11.1526H11.1517H11.1507H11.1497H11.1487H11.1476H11.1466H11.1455H11.1444H11.1434H11.1422H11.1411H11.14H11.1388H11.1377H11.1365H11.1353H11.1341H11.1329H11.1316H11.1304H11.1291H11.1279H11.1266H11.1253H11.1239H11.1226H11.1213H11.1199H11.1185H11.1172H11.1158H11.1143H11.1129H11.1115H11.11H11.1085H11.1071H11.1056H11.1041H11.1025H11.101H11.0995H11.0979H11.0963H11.0948H11.0932H11.0915H11.0899H11.0883H11.0866H11.085H11.0833H11.0816H11.0799H11.0782H11.0765H11.0747H11.073H11.0712H11.0695H11.0677H11.0659H11.0641H11.0622H11.0604H11.0586H11.0567H11.0548H11.053H10.732H9.9092H4.33634H3.66054H3.57917H3.55895H3.53877H3.49857H3.33981H3.18444H3.14616H3.1271H3.1081H3.03269H2.46577H2.20922H2.08839H1.97279H1.26061H1.25279H1.24509H1.2375H1.23002H1.22265H1.21539H1.20824H1.20121H1.19429H1.18749H1.1808H1.17422H1.16776H1.16142H1.15519H1.14908H1.14308H1.1372H1.13144H1.1258H1.12027H1.11486H1.10958H1.10441H1.09936H1.09443H1.08962H1.08493H1.08037H1.07592H1.0716H1.0674H1.06333H1.05937H1.05554H1.05184H1.04826H1.0448H1.04147H1.03827H1.03519H1.03224H1.02941H1.02671H1.02414H1.0217H1.01939H1.01721H1.01515H1.01322H1.01143H1.00976H1.00823H1.00683H1.00556H1.00442H1.00341H1.00254H1.0018H1.00119H1.00072H1.00038H1.00018L1.00011 1ZM1.50011 2.25072L1.00011 2.25L1.50011 2.25065V2.25V2.24597V2.24195V2.23793V2.23391V2.22989V2.22588V2.22187V2.21787V2.21386V2.20986V2.20587V2.20187V2.19788V2.19389V2.18991V2.18593V2.18195V2.17797V2.174V2.17003V2.16607V2.1621V2.15815V2.15419V2.15024V2.14629V2.14234V2.1384V2.13446V2.13053V2.12659V2.12267V2.11874V2.11482V2.1109V2.10699V2.10308V2.09917V2.09526V2.09136V2.08747V2.08358V2.07969V2.0758V2.07192V2.06804V2.06417V2.0603V2.05643V2.05257V2.04871V2.04485V2.041V2.03716V2.03331V2.02947V2.02564V2.02181V2.01798V2.01415V2.01034V2.00652V2.00271V1.9989V1.9951V1.9913V1.9875V1.98371V1.97993V1.97615V1.97237V1.96859V1.96482V1.96106V1.9573V1.95354V1.94979V1.94604V1.9423V1.93856V1.93482V1.93109V1.92737V1.92365V1.91993V1.91622V1.91251V1.90881V1.90511V1.90141V1.89773V1.89404V1.89036V1.88669V1.88301V1.87935V1.87569V1.87203V1.86838V1.86473V1.86109V1.85745V1.85382V1.85019V1.84657V1.84295V1.83934V1.83573V1.83213V1.82853V1.82494V1.82135V1.81777V1.81419V1.81062V1.80705V1.80349V1.79993V1.79638V1.79283V1.78929V1.78576V1.78222V1.7787V1.77518V1.77166V1.76815V1.76465V1.76115V1.75766V1.75417V1.75068V1.74721V1.74373V1.74027V1.73681V1.73335V1.7299V1.72646V1.72302V1.71958V1.71616V1.71273V1.70932V1.70591V1.7025V1.6991V1.69571V1.69232V1.68894V1.68556V1.68219V1.67883V1.67547V1.67212V1.66877V1.66543V1.66209V1.65876V1.65544V1.65212V1.64881V1.64551V1.64221V1.63892V1.63563V1.63235V1.62907V1.6258V1.62254V1.61929V1.61604V1.61279V1.60955V1.60632V1.6031V1.59988V1.59667V1.59346V1.59026V1.58707V1.58388V1.5807V1.57753V1.57436V1.5712V1.56804V1.56489V1.56175V1.55862V1.55549V1.55237V1.54925V1.54614V1.54304V1.53995V1.53686V1.53378V1.5307V1.52763V1.52457V1.52152V1.51847V1.51543V1.51239V1.50937V1.50635V1.50333V1.50033V1.5H1.97279H4.33634H9.9092H10.6819V3.5V4H11.1819H12.8396L12.8907 4.06147L14.3468 5.97037L14.3473 5.97111C14.4482 6.10479 14.5001 6.26156 14.5001 6.41875V8.625H14.3637H13.7274H13.2274V9.125C13.2274 9.8779 12.607 10.5 11.8183 10.5C11.0295 10.5 10.4092 9.8779 10.4092 9.125V8.625H9.9092H6.09102H5.59102V9.125C5.59102 9.8779 4.97068 10.5 4.18193 10.5C3.42907 10.5 2.75177 9.78366 2.75177 8.99412V8.49412H2.25177H1.49254C1.4932 7.79766 1.49467 6.5576 1.49615 5.36487L1.49887 3.20773L1.49977 2.51224L1.50002 2.31884L1.50009 2.26805L1.50011 2.25505L1.50011 2.25176L1.50011 2.25093L1.50011 2.25072ZM3.54552 9.125C3.54552 9.46875 3.83189 9.75 4.18189 9.75C4.53189 9.75 4.81825 9.46875 4.81825 9.125C4.81825 8.78125 4.53189 8.5 4.18189 8.5C3.83189 8.5 3.54552 8.78125 3.54552 9.125ZM12.4741 4.71501L13.4998 6H10.7191L10.7189 4.71501H12.4741ZM11.1818 9.125C11.1818 9.46875 11.4681 9.75 11.8181 9.75C12.1681 9.75 12.4545 9.46875 12.4545 9.125C12.4545 8.78125 12.1681 8.5 11.8181 8.5C11.4681 8.5 11.1818 8.78125 11.1818 9.125Z" fill="#616365"/>
</svg>
